<?xml version="1.0" encoding="UTF-8" standalone="no"?>
<!DOCTYPE svg PUBLIC "-//W3C//DTD SVG 1.1//EN"
 "http://www.w3.org/Graphics/SVG/1.1/DTD/svg11.dtd">
<!-- Generated by graphviz version 2.40.1 (20161225.0304)
 -->
<!-- Title: G Pages: 1 -->
<svg width="1357pt" height="786pt"
 viewBox="0.00 0.00 1357.49 786.00" xmlns="http://www.w3.org/2000/svg" xmlns:xlink="http://www.w3.org/1999/xlink">
<g id="graph0" class="graph" transform="scale(1 1) rotate(0) translate(4 782)">
<title>G</title>
<polygon fill="#ffffff" stroke="transparent" points="-4,4 -4,-782 1353.4913,-782 1353.4913,4 -4,4"/>
<g id="clust1" class="cluster">
<title>cluster_Global</title>
<path fill="none" stroke="#c0c0c0" d="M149.4913,-8C149.4913,-8 1329.4913,-8 1329.4913,-8 1335.4913,-8 1341.4913,-14 1341.4913,-20 1341.4913,-20 1341.4913,-758 1341.4913,-758 1341.4913,-764 1335.4913,-770 1329.4913,-770 1329.4913,-770 149.4913,-770 149.4913,-770 143.4913,-770 137.4913,-764 137.4913,-758 137.4913,-758 137.4913,-20 137.4913,-20 137.4913,-14 143.4913,-8 149.4913,-8"/>
<text text-anchor="middle" x="739.4913" y="-757.2" font-family="Times,serif" font-size="11.00" fill="#c0c0c0">Global</text>
</g>
<g id="clust2" class="cluster">
<title>cluster_\Twigger</title>
<path fill="none" stroke="#c0c0c0" d="M157.4913,-16C157.4913,-16 1321.4913,-16 1321.4913,-16 1327.4913,-16 1333.4913,-22 1333.4913,-28 1333.4913,-28 1333.4913,-730 1333.4913,-730 1333.4913,-736 1327.4913,-742 1321.4913,-742 1321.4913,-742 157.4913,-742 157.4913,-742 151.4913,-742 145.4913,-736 145.4913,-730 145.4913,-730 145.4913,-28 145.4913,-28 145.4913,-22 151.4913,-16 157.4913,-16"/>
<text text-anchor="middle" x="739.4913" y="-729.2" font-family="Times,serif" font-size="11.00" fill="#c0c0c0">Twigger</text>
</g>
<g id="clust3" class="cluster">
<title>cluster_\Twigger\UnionCloud</title>
<path fill="none" stroke="#c0c0c0" d="M165.4913,-24C165.4913,-24 1313.4913,-24 1313.4913,-24 1319.4913,-24 1325.4913,-30 1325.4913,-36 1325.4913,-36 1325.4913,-702 1325.4913,-702 1325.4913,-708 1319.4913,-714 1313.4913,-714 1313.4913,-714 165.4913,-714 165.4913,-714 159.4913,-714 153.4913,-708 153.4913,-702 153.4913,-702 153.4913,-36 153.4913,-36 153.4913,-30 159.4913,-24 165.4913,-24"/>
<text text-anchor="middle" x="739.4913" y="-701.2" font-family="Times,serif" font-size="11.00" fill="#c0c0c0">UnionCloud</text>
</g>
<g id="clust4" class="cluster">
<title>cluster_\Twigger\UnionCloud\Auth</title>
<path fill="none" stroke="#c0c0c0" d="M792.4913,-560C792.4913,-560 1236.9913,-560 1236.9913,-560 1242.9913,-560 1248.9913,-566 1248.9913,-572 1248.9913,-572 1248.9913,-674 1248.9913,-674 1248.9913,-680 1242.9913,-686 1236.9913,-686 1236.9913,-686 792.4913,-686 792.4913,-686 786.4913,-686 780.4913,-680 780.4913,-674 780.4913,-674 780.4913,-572 780.4913,-572 780.4913,-566 786.4913,-560 792.4913,-560"/>
<text text-anchor="middle" x="1014.7413" y="-673.2" font-family="Times,serif" font-size="11.00" fill="#c0c0c0">Auth</text>
</g>
<g id="clust5" class="cluster">
<title>cluster_\Twigger\UnionCloud\Exception</title>
<path fill="none" stroke="#c0c0c0" d="M173.4913,-238C173.4913,-238 1305.4913,-238 1305.4913,-238 1311.4913,-238 1317.4913,-244 1317.4913,-250 1317.4913,-250 1317.4913,-540 1317.4913,-540 1317.4913,-546 1311.4913,-552 1305.4913,-552 1305.4913,-552 173.4913,-552 173.4913,-552 167.4913,-552 161.4913,-546 161.4913,-540 161.4913,-540 161.4913,-250 161.4913,-250 161.4913,-244 167.4913,-238 173.4913,-238"/>
<text text-anchor="middle" x="739.4913" y="-539.2" font-family="Times,serif" font-size="11.00" fill="#c0c0c0">Exception</text>
</g>
<g id="clust6" class="cluster">
<title>cluster_\Twigger\UnionCloud\Exception\Authentication</title>
<path fill="none" stroke="#c0c0c0" d="M390.4913,-290C390.4913,-290 1297.4913,-290 1297.4913,-290 1303.4913,-290 1309.4913,-296 1309.4913,-302 1309.4913,-302 1309.4913,-512 1309.4913,-512 1309.4913,-518 1303.4913,-524 1297.4913,-524 1297.4913,-524 390.4913,-524 390.4913,-524 384.4913,-524 378.4913,-518 378.4913,-512 378.4913,-512 378.4913,-302 378.4913,-302 378.4913,-296 384.4913,-290 390.4913,-290"/>
<text text-anchor="middle" x="843.9913" y="-511.2" font-family="Times,serif" font-size="11.00" fill="#c0c0c0">Authentication</text>
</g>
<g id="clust7" class="cluster">
<title>cluster_\Twigger\UnionCloud\Request</title>
<path fill="none" stroke="#c0c0c0" d="M802.4913,-158C802.4913,-158 1226.9913,-158 1226.9913,-158 1232.9913,-158 1238.9913,-164 1238.9913,-170 1238.9913,-170 1238.9913,-218 1238.9913,-218 1238.9913,-224 1232.9913,-230 1226.9913,-230 1226.9913,-230 802.4913,-230 802.4913,-230 796.4913,-230 790.4913,-224 790.4913,-218 790.4913,-218 790.4913,-170 790.4913,-170 790.4913,-164 796.4913,-158 802.4913,-158"/>
<text text-anchor="middle" x="1014.7413" y="-217.2" font-family="Times,serif" font-size="11.00" fill="#c0c0c0">Request</text>
</g>
<g id="clust8" class="cluster">
<title>cluster_\Twigger\UnionCloud\Traits</title>
<path fill="none" stroke="#c0c0c0" d="M1133.9913,-78C1133.9913,-78 1229.9913,-78 1229.9913,-78 1235.9913,-78 1241.9913,-84 1241.9913,-90 1241.9913,-90 1241.9913,-138 1241.9913,-138 1241.9913,-144 1235.9913,-150 1229.9913,-150 1229.9913,-150 1133.9913,-150 1133.9913,-150 1127.9913,-150 1121.9913,-144 1121.9913,-138 1121.9913,-138 1121.9913,-90 1121.9913,-90 1121.9913,-84 1127.9913,-78 1133.9913,-78"/>
<text text-anchor="middle" x="1181.9913" y="-137.2" font-family="Times,serif" font-size="11.00" fill="#c0c0c0">Traits</text>
</g>
<!-- \\Twigger\\UnionCloud\\Auth\\Authentication -->
<g id="node1" class="node">
<title>\\Twigger\\UnionCloud\\Auth\\Authentication</title>
<polygon fill="none" stroke="#000000" points="1237.4913,-658 1126.4913,-658 1126.4913,-622 1237.4913,-622 1237.4913,-658"/>
<text text-anchor="middle" x="1181.9913" y="-637.2" font-family="Courier,monospace" font-size="11.00" fill="#000000">Authentication</text>
</g>
<!-- \\Twigger\\UnionCloud\\Auth\\v0Authenticator -->
<g id="node2" class="node">
<title>\\Twigger\\UnionCloud\\Auth\\v0Authenticator</title>
<polygon fill="none" stroke="#000000" points="1240.9913,-604 1122.9913,-604 1122.9913,-568 1240.9913,-568 1240.9913,-604"/>
<text text-anchor="middle" x="1181.9913" y="-583.2" font-family="Courier,monospace" font-size="11.00" fill="#000000">v0Authenticator</text>
</g>
<!-- \\Twigger\\UnionCloud\\Auth\\IAuthenticator -->
<g id="node3" class="node">
<title>\\Twigger\\UnionCloud\\Auth\\IAuthenticator</title>
<polygon fill="none" stroke="#000000" points="899.4913,-604 788.4913,-604 788.4913,-568 899.4913,-568 899.4913,-604"/>
<text text-anchor="middle" x="843.9913" y="-583.2" font-family="Courier,monospace" font-size="11.00" fill="#000000">IAuthenticator</text>
</g>
<!-- \\Twigger\\UnionCloud\\Auth\\v0Authenticator&#45;&gt;\\Twigger\\UnionCloud\\Auth\\IAuthenticator -->
<g id="edge1" class="edge">
<title>\\Twigger\\UnionCloud\\Auth\\v0Authenticator&#45;&gt;\\Twigger\\UnionCloud\\Auth\\IAuthenticator</title>
<path fill="none" stroke="#000000" stroke-dasharray="1,5" d="M1122.7295,-586C1063.097,-586 971.3493,-586 909.5656,-586"/>
<polygon fill="none" stroke="#000000" points="909.5364,-582.5001 899.5364,-586 909.5363,-589.5001 909.5364,-582.5001"/>
</g>
<!-- \\Twigger\\UnionCloud\\Exception\\Authentication\\AuthenticationExpiredException -->
<g id="node4" class="node">
<title>\\Twigger\\UnionCloud\\Exception\\Authentication\\AuthenticationExpiredException</title>
<polygon fill="none" stroke="#000000" points="1291.4913,-496 1072.4913,-496 1072.4913,-460 1291.4913,-460 1291.4913,-496"/>
<text text-anchor="middle" x="1181.9913" y="-475.2" font-family="Courier,monospace" font-size="11.00" fill="#000000">AuthenticationExpiredException</text>
</g>
<!-- \\Twigger\\UnionCloud\\Exception\\Authentication\\UnionCloudResponseAuthenticationException -->
<g id="node10" class="node">
<title>\\Twigger\\UnionCloud\\Exception\\Authentication\\UnionCloudResponseAuthenticationException</title>
<polygon fill="none" stroke="#000000" points="990.4913,-496 697.4913,-496 697.4913,-460 990.4913,-460 990.4913,-496"/>
<text text-anchor="middle" x="843.9913" y="-475.2" font-family="Courier,monospace" font-size="11.00" fill="#000000">UnionCloudResponseAuthenticationException</text>
</g>
<!-- \\Twigger\\UnionCloud\\Exception\\Authentication\\AuthenticationExpiredException&#45;&gt;\\Twigger\\UnionCloud\\Exception\\Authentication\\UnionCloudResponseAuthenticationException -->
<g id="edge2" class="edge">
<title>\\Twigger\\UnionCloud\\Exception\\Authentication\\AuthenticationExpiredException&#45;&gt;\\Twigger\\UnionCloud\\Exception\\Authentication\\UnionCloudResponseAuthenticationException</title>
<path fill="none" stroke="#000000" d="M1072.2524,-478C1049.4825,-478 1025.0692,-478 1000.9829,-478"/>
<polygon fill="none" stroke="#000000" points="1000.686,-474.5001 990.6859,-478 1000.6859,-481.5001 1000.686,-474.5001"/>
</g>
<!-- \\Twigger\\UnionCloud\\Exception\\Authentication\\AuthenticationIncorrectParameters -->
<g id="node5" class="node">
<title>\\Twigger\\UnionCloud\\Exception\\Authentication\\AuthenticationIncorrectParameters</title>
<polygon fill="none" stroke="#000000" points="1301.4913,-442 1062.4913,-442 1062.4913,-406 1301.4913,-406 1301.4913,-442"/>
<text text-anchor="middle" x="1181.9913" y="-421.2" font-family="Courier,monospace" font-size="11.00" fill="#000000">AuthenticationIncorrectParameters</text>
</g>
<!-- \\Twigger\\UnionCloud\\Exception\\Authentication\\AuthenticationIncorrectParameters&#45;&gt;\\Twigger\\UnionCloud\\Exception\\Authentication\\UnionCloudResponseAuthenticationException -->
<g id="edge3" class="edge">
<title>\\Twigger\\UnionCloud\\Exception\\Authentication\\AuthenticationIncorrectParameters&#45;&gt;\\Twigger\\UnionCloud\\Exception\\Authentication\\UnionCloudResponseAuthenticationException</title>
<path fill="none" stroke="#000000" d="M1068.9723,-442.0563C1036.2753,-447.2801 1000.4265,-453.0074 967.1442,-458.3247"/>
<polygon fill="none" stroke="#000000" points="966.2264,-454.9268 956.9039,-459.9607 967.3308,-461.8392 966.2264,-454.9268"/>
</g>
<!-- \\Twigger\\UnionCloud\\Exception\\Authentication\\AuthenticationParameterMissing -->
<g id="node6" class="node">
<title>\\Twigger\\UnionCloud\\Exception\\Authentication\\AuthenticationParameterMissing</title>
<polygon fill="none" stroke="#000000" points="953.4913,-442 734.4913,-442 734.4913,-406 953.4913,-406 953.4913,-442"/>
<text text-anchor="middle" x="843.9913" y="-421.2" font-family="Courier,monospace" font-size="11.00" fill="#000000">AuthenticationParameterMissing</text>
</g>
<!-- \\Twigger\\UnionCloud\\Exception\\Authentication\\UnionCloudAuthenticationException -->
<g id="node9" class="node">
<title>\\Twigger\\UnionCloud\\Exception\\Authentication\\UnionCloudAuthenticationException</title>
<polygon fill="none" stroke="#000000" points="625.4913,-388 386.4913,-388 386.4913,-352 625.4913,-352 625.4913,-388"/>
<text text-anchor="middle" x="505.9913" y="-367.2" font-family="Courier,monospace" font-size="11.00" fill="#000000">UnionCloudAuthenticationException</text>
</g>
<!-- \\Twigger\\UnionCloud\\Exception\\Authentication\\AuthenticationParameterMissing&#45;&gt;\\Twigger\\UnionCloud\\Exception\\Authentication\\UnionCloudAuthenticationException -->
<g id="edge4" class="edge">
<title>\\Twigger\\UnionCloud\\Exception\\Authentication\\AuthenticationParameterMissing&#45;&gt;\\Twigger\\UnionCloud\\Exception\\Authentication\\UnionCloudAuthenticationException</title>
<path fill="none" stroke="#000000" d="M734.2524,-406.4677C700.6551,-401.1001 663.48,-395.1609 629.0564,-389.6613"/>
<polygon fill="none" stroke="#000000" points="629.3758,-386.168 618.9489,-388.0465 628.2714,-393.0803 629.3758,-386.168"/>
</g>
<!-- \\Twigger\\UnionCloud\\Exception\\Authentication\\AuthenticatorMustExtendIAuthenticator -->
<g id="node7" class="node">
<title>\\Twigger\\UnionCloud\\Exception\\Authentication\\AuthenticatorMustExtendIAuthenticator</title>
<polygon fill="none" stroke="#000000" points="976.9913,-388 710.9913,-388 710.9913,-352 976.9913,-352 976.9913,-388"/>
<text text-anchor="middle" x="843.9913" y="-367.2" font-family="Courier,monospace" font-size="11.00" fill="#000000">AuthenticatorMustExtendIAuthenticator</text>
</g>
<!-- \\Twigger\\UnionCloud\\Exception\\Authentication\\AuthenticatorMustExtendIAuthenticator&#45;&gt;\\Twigger\\UnionCloud\\Exception\\Authentication\\UnionCloudAuthenticationException -->
<g id="edge5" class="edge">
<title>\\Twigger\\UnionCloud\\Exception\\Authentication\\AuthenticatorMustExtendIAuthenticator&#45;&gt;\\Twigger\\UnionCloud\\Exception\\Authentication\\UnionCloudAuthenticationException</title>
<path fill="none" stroke="#000000" d="M710.89,-370C686.1291,-370 660.2904,-370 635.6351,-370"/>
<polygon fill="none" stroke="#000000" points="635.5175,-366.5001 625.5175,-370 635.5174,-373.5001 635.5175,-366.5001"/>
</g>
<!-- \\Twigger\\UnionCloud\\Exception\\Authentication\\AuthenticatorNotFound -->
<g id="node8" class="node">
<title>\\Twigger\\UnionCloud\\Exception\\Authentication\\AuthenticatorNotFound</title>
<polygon fill="none" stroke="#000000" points="922.9913,-334 764.9913,-334 764.9913,-298 922.9913,-298 922.9913,-334"/>
<text text-anchor="middle" x="843.9913" y="-313.2" font-family="Courier,monospace" font-size="11.00" fill="#000000">AuthenticatorNotFound</text>
</g>
<!-- \\Twigger\\UnionCloud\\Exception\\Authentication\\AuthenticatorNotFound&#45;&gt;\\Twigger\\UnionCloud\\Exception\\Authentication\\UnionCloudAuthenticationException -->
<g id="edge6" class="edge">
<title>\\Twigger\\UnionCloud\\Exception\\Authentication\\AuthenticatorNotFound&#45;&gt;\\Twigger\\UnionCloud\\Exception\\Authentication\\UnionCloudAuthenticationException</title>
<path fill="none" stroke="#000000" d="M764.7454,-328.6606C724.2985,-335.1225 674.189,-343.1282 628.8708,-350.3684"/>
<polygon fill="none" stroke="#000000" points="628.3008,-346.915 618.9782,-351.9488 629.4052,-353.8273 628.3008,-346.915"/>
</g>
<!-- \\Twigger\\UnionCloud\\Exception\\UnionCloudException -->
<g id="node12" class="node">
<title>\\Twigger\\UnionCloud\\Exception\\UnionCloudException</title>
<polygon fill="none" stroke="#000000" points="314.4913,-335 169.4913,-335 169.4913,-299 314.4913,-299 314.4913,-335"/>
<text text-anchor="middle" x="241.9913" y="-314.2" font-family="Courier,monospace" font-size="11.00" fill="#000000">UnionCloudException</text>
</g>
<!-- \\Twigger\\UnionCloud\\Exception\\Authentication\\UnionCloudAuthenticationException&#45;&gt;\\Twigger\\UnionCloud\\Exception\\UnionCloudException -->
<g id="edge7" class="edge">
<title>\\Twigger\\UnionCloud\\Exception\\Authentication\\UnionCloudAuthenticationException&#45;&gt;\\Twigger\\UnionCloud\\Exception\\UnionCloudException</title>
<path fill="none" stroke="#000000" d="M399.1283,-351.9852C392.1371,-350.6757 385.2098,-349.3416 378.4913,-348 360.998,-344.5068 342.3136,-340.4681 324.5595,-336.4839"/>
<polygon fill="none" stroke="#000000" points="325.3308,-333.07 314.8053,-334.2798 323.788,-339.8978 325.3308,-333.07"/>
</g>
<!-- \\Twigger\\UnionCloud\\Exception\\Authentication\\UnionCloudResponseAuthenticationException&#45;&gt;\\Twigger\\UnionCloud\\Exception\\Authentication\\UnionCloudAuthenticationException -->
<g id="edge8" class="edge">
<title>\\Twigger\\UnionCloud\\Exception\\Authentication\\UnionCloudResponseAuthenticationException&#45;&gt;\\Twigger\\UnionCloud\\Exception\\Authentication\\UnionCloudAuthenticationException</title>
<path fill="none" stroke="#000000" d="M731.8065,-459.9299C720.1338,-457.2756 708.5156,-454.3042 697.4913,-451 646.0099,-435.5697 589.6384,-410.6906 551.477,-392.5721"/>
<polygon fill="none" stroke="#000000" points="552.7124,-389.2831 542.1814,-388.1212 549.6893,-395.5967 552.7124,-389.2831"/>
</g>
<!-- \\Twigger\\UnionCloud\\Exception\\InsufficientPermissionException -->
<g id="node11" class="node">
<title>\\Twigger\\UnionCloud\\Exception\\InsufficientPermissionException</title>
<polygon fill="none" stroke="#000000" points="618.9913,-282 392.9913,-282 392.9913,-246 618.9913,-246 618.9913,-282"/>
<text text-anchor="middle" x="505.9913" y="-261.2" font-family="Courier,monospace" font-size="11.00" fill="#000000">InsufficientPermissionException</text>
</g>
<!-- \\Twigger\\UnionCloud\\Exception\\InsufficientPermissionException&#45;&gt;\\Twigger\\UnionCloud\\Exception\\UnionCloudException -->
<g id="edge9" class="edge">
<title>\\Twigger\\UnionCloud\\Exception\\InsufficientPermissionException&#45;&gt;\\Twigger\\UnionCloud\\Exception\\UnionCloudException</title>
<path fill="none" stroke="#000000" d="M399.1283,-282.0148C392.1371,-283.3243 385.2098,-284.6584 378.4913,-286 360.998,-289.4932 342.3136,-293.5319 324.5595,-297.5161"/>
<polygon fill="none" stroke="#000000" points="323.788,-294.1022 314.8053,-299.7202 325.3308,-300.93 323.788,-294.1022"/>
</g>
<!-- \\Exception -->
<g id="node17" class="node">
<title>\\Exception</title>
<ellipse fill="none" stroke="#000000" cx="48.7457" cy="-317" rx="48.9926" ry="18"/>
<text text-anchor="middle" x="48.7457" y="-313.3" font-family="Times,serif" font-size="14.00" fill="#c0c0c0">\Exception</text>
</g>
<!-- \\Twigger\\UnionCloud\\Exception\\UnionCloudException&#45;&gt;\\Exception -->
<g id="edge10" class="edge">
<title>\\Twigger\\UnionCloud\\Exception\\UnionCloudException&#45;&gt;\\Exception</title>
<path fill="none" stroke="#000000" d="M169.484,-317C149.1487,-317 127.291,-317 107.8368,-317"/>
<polygon fill="none" stroke="#000000" points="107.6034,-313.5001 97.6034,-317 107.6033,-320.5001 107.6034,-313.5001"/>
</g>
<!-- \\Twigger\\UnionCloud\\Request\\BaseRequest -->
<g id="node13" class="node">
<title>\\Twigger\\UnionCloud\\Request\\BaseRequest</title>
<polygon fill="none" stroke="#000000" points="889.4913,-202 798.4913,-202 798.4913,-166 889.4913,-166 889.4913,-202"/>
<text text-anchor="middle" x="843.9913" y="-181.2" font-family="Courier,monospace" font-size="11.00" fill="#000000">BaseRequest</text>
</g>
<!-- \\Twigger\\UnionCloud\\Request\\EventRequest -->
<g id="node14" class="node">
<title>\\Twigger\\UnionCloud\\Request\\EventRequest</title>
<polygon fill="none" stroke="#000000" points="1230.9913,-202 1132.9913,-202 1132.9913,-166 1230.9913,-166 1230.9913,-202"/>
<text text-anchor="middle" x="1181.9913" y="-181.2" font-family="Courier,monospace" font-size="11.00" fill="#000000">EventRequest</text>
</g>
<!-- \\Twigger\\UnionCloud\\Request\\EventRequest&#45;&gt;\\Twigger\\UnionCloud\\Request\\BaseRequest -->
<g id="edge11" class="edge">
<title>\\Twigger\\UnionCloud\\Request\\EventRequest&#45;&gt;\\Twigger\\UnionCloud\\Request\\BaseRequest</title>
<path fill="none" stroke="#000000" d="M1132.8432,-184C1070.8853,-184 964.6482,-184 899.7279,-184"/>
<polygon fill="none" stroke="#000000" points="899.6765,-180.5001 889.6764,-184 899.6764,-187.5001 899.6765,-180.5001"/>
</g>
<!-- \\Twigger\\UnionCloud\\Traits\\Authenticates -->
<g id="node15" class="node">
<title>\\Twigger\\UnionCloud\\Traits\\Authenticates</title>
<polygon fill="none" stroke="#000000" points="1233.9913,-122 1129.9913,-122 1129.9913,-86 1233.9913,-86 1233.9913,-122"/>
<text text-anchor="middle" x="1181.9913" y="-101.2" font-family="Courier,monospace" font-size="11.00" fill="#000000">Authenticates</text>
</g>
<!-- \\Twigger\\UnionCloud\\UnionCloud -->
<g id="node16" class="node">
<title>\\Twigger\\UnionCloud\\UnionCloud</title>
<polygon fill="none" stroke="#000000" points="1223.9913,-68 1139.9913,-68 1139.9913,-32 1223.9913,-32 1223.9913,-68"/>
<text text-anchor="middle" x="1181.9913" y="-47.2" font-family="Courier,monospace" font-size="11.00" fill="#000000">UnionCloud</text>
</g>
</g>
</svg>
