<?xml version="1.0" encoding="UTF-8" standalone="no"?>
<!DOCTYPE svg PUBLIC "-//W3C//DTD SVG 1.1//EN"
 "http://www.w3.org/Graphics/SVG/1.1/DTD/svg11.dtd">
<!-- Generated by graphviz version 2.40.1 (20161225.0304)
 -->
<!-- Title: G Pages: 1 -->
<svg width="1411pt" height="1252pt"
 viewBox="0.00 0.00 1411.49 1252.00" xmlns="http://www.w3.org/2000/svg" xmlns:xlink="http://www.w3.org/1999/xlink">
<g id="graph0" class="graph" transform="scale(1 1) rotate(0) translate(4 1248)">
<title>G</title>
<polygon fill="#ffffff" stroke="transparent" points="-4,4 -4,-1248 1407.4913,-1248 1407.4913,4 -4,4"/>
<g id="clust1" class="cluster">
<title>cluster_Global</title>
<path fill="none" stroke="#c0c0c0" d="M149.4913,-8C149.4913,-8 1383.4913,-8 1383.4913,-8 1389.4913,-8 1395.4913,-14 1395.4913,-20 1395.4913,-20 1395.4913,-1224 1395.4913,-1224 1395.4913,-1230 1389.4913,-1236 1383.4913,-1236 1383.4913,-1236 149.4913,-1236 149.4913,-1236 143.4913,-1236 137.4913,-1230 137.4913,-1224 137.4913,-1224 137.4913,-20 137.4913,-20 137.4913,-14 143.4913,-8 149.4913,-8"/>
<text text-anchor="middle" x="766.4913" y="-1223.2" font-family="Times,serif" font-size="11.00" fill="#c0c0c0">Global</text>
</g>
<g id="clust2" class="cluster">
<title>cluster_\Twigger</title>
<path fill="none" stroke="#c0c0c0" d="M157.4913,-16C157.4913,-16 1375.4913,-16 1375.4913,-16 1381.4913,-16 1387.4913,-22 1387.4913,-28 1387.4913,-28 1387.4913,-1196 1387.4913,-1196 1387.4913,-1202 1381.4913,-1208 1375.4913,-1208 1375.4913,-1208 157.4913,-1208 157.4913,-1208 151.4913,-1208 145.4913,-1202 145.4913,-1196 145.4913,-1196 145.4913,-28 145.4913,-28 145.4913,-22 151.4913,-16 157.4913,-16"/>
<text text-anchor="middle" x="766.4913" y="-1195.2" font-family="Times,serif" font-size="11.00" fill="#c0c0c0">Twigger</text>
</g>
<g id="clust3" class="cluster">
<title>cluster_\Twigger\UnionCloud</title>
<path fill="none" stroke="#c0c0c0" d="M165.4913,-24C165.4913,-24 1367.4913,-24 1367.4913,-24 1373.4913,-24 1379.4913,-30 1379.4913,-36 1379.4913,-36 1379.4913,-1168 1379.4913,-1168 1379.4913,-1174 1373.4913,-1180 1367.4913,-1180 1367.4913,-1180 165.4913,-1180 165.4913,-1180 159.4913,-1180 153.4913,-1174 153.4913,-1168 153.4913,-1168 153.4913,-36 153.4913,-36 153.4913,-30 159.4913,-24 165.4913,-24"/>
<text text-anchor="middle" x="766.4913" y="-1167.2" font-family="Times,serif" font-size="11.00" fill="#c0c0c0">UnionCloud</text>
</g>
<g id="clust4" class="cluster">
<title>cluster_\Twigger\UnionCloud\Exception</title>
<path fill="none" stroke="#c0c0c0" d="M173.4913,-748C173.4913,-748 1359.4913,-748 1359.4913,-748 1365.4913,-748 1371.4913,-754 1371.4913,-760 1371.4913,-760 1371.4913,-1140 1371.4913,-1140 1371.4913,-1146 1365.4913,-1152 1359.4913,-1152 1359.4913,-1152 173.4913,-1152 173.4913,-1152 167.4913,-1152 161.4913,-1146 161.4913,-1140 161.4913,-1140 161.4913,-760 161.4913,-760 161.4913,-754 167.4913,-748 173.4913,-748"/>
<text text-anchor="middle" x="766.4913" y="-1139.2" font-family="Times,serif" font-size="11.00" fill="#c0c0c0">Exception</text>
</g>
<g id="clust5" class="cluster">
<title>cluster_\Twigger\UnionCloud\Exception\Authentication</title>
<path fill="none" stroke="#c0c0c0" d="M417.4913,-890C417.4913,-890 1351.4913,-890 1351.4913,-890 1357.4913,-890 1363.4913,-896 1363.4913,-902 1363.4913,-902 1363.4913,-1112 1363.4913,-1112 1363.4913,-1118 1357.4913,-1124 1351.4913,-1124 1351.4913,-1124 417.4913,-1124 417.4913,-1124 411.4913,-1124 405.4913,-1118 405.4913,-1112 405.4913,-1112 405.4913,-902 405.4913,-902 405.4913,-896 411.4913,-890 417.4913,-890"/>
<text text-anchor="middle" x="884.4913" y="-1111.2" font-family="Times,serif" font-size="11.00" fill="#c0c0c0">Authentication</text>
</g>
<g id="clust6" class="cluster">
<title>cluster_\Twigger\UnionCloud\Exception\Response</title>
<path fill="none" stroke="#c0c0c0" d="M471.4913,-756C471.4913,-756 1003.4913,-756 1003.4913,-756 1009.4913,-756 1015.4913,-762 1015.4913,-768 1015.4913,-768 1015.4913,-870 1015.4913,-870 1015.4913,-876 1009.4913,-882 1003.4913,-882 1003.4913,-882 471.4913,-882 471.4913,-882 465.4913,-882 459.4913,-876 459.4913,-870 459.4913,-870 459.4913,-768 459.4913,-768 459.4913,-762 465.4913,-756 471.4913,-756"/>
<text text-anchor="middle" x="737.4913" y="-869.2" font-family="Times,serif" font-size="11.00" fill="#c0c0c0">Response</text>
</g>
<g id="clust7" class="cluster">
<title>cluster_\Twigger\UnionCloud\Resource</title>
<path fill="none" stroke="#c0c0c0" d="M852.9913,-614C852.9913,-614 1283.9913,-614 1283.9913,-614 1289.9913,-614 1295.9913,-620 1295.9913,-626 1295.9913,-626 1295.9913,-728 1295.9913,-728 1295.9913,-734 1289.9913,-740 1283.9913,-740 1283.9913,-740 852.9913,-740 852.9913,-740 846.9913,-740 840.9913,-734 840.9913,-728 840.9913,-728 840.9913,-626 840.9913,-626 840.9913,-620 846.9913,-614 852.9913,-614"/>
<text text-anchor="middle" x="1068.4913" y="-727.2" font-family="Times,serif" font-size="11.00" fill="#c0c0c0">Resource</text>
</g>
<g id="clust8" class="cluster">
<title>cluster_\Twigger\UnionCloud\Response</title>
<path fill="none" stroke="#c0c0c0" d="M852.9913,-480C852.9913,-480 1283.9913,-480 1283.9913,-480 1289.9913,-480 1295.9913,-486 1295.9913,-492 1295.9913,-492 1295.9913,-594 1295.9913,-594 1295.9913,-600 1289.9913,-606 1283.9913,-606 1283.9913,-606 852.9913,-606 852.9913,-606 846.9913,-606 840.9913,-600 840.9913,-594 840.9913,-594 840.9913,-492 840.9913,-492 840.9913,-486 846.9913,-480 852.9913,-480"/>
<text text-anchor="middle" x="1068.4913" y="-593.2" font-family="Times,serif" font-size="11.00" fill="#c0c0c0">Response</text>
</g>
<g id="clust9" class="cluster">
<title>cluster_\Twigger\UnionCloud\Request</title>
<path fill="none" stroke="#c0c0c0" d="M856.4913,-346C856.4913,-346 1280.9913,-346 1280.9913,-346 1286.9913,-346 1292.9913,-352 1292.9913,-358 1292.9913,-358 1292.9913,-460 1292.9913,-460 1292.9913,-466 1286.9913,-472 1280.9913,-472 1280.9913,-472 856.4913,-472 856.4913,-472 850.4913,-472 844.4913,-466 844.4913,-460 844.4913,-460 844.4913,-358 844.4913,-358 844.4913,-352 850.4913,-346 856.4913,-346"/>
<text text-anchor="middle" x="1068.7413" y="-459.2" font-family="Times,serif" font-size="11.00" fill="#c0c0c0">Request</text>
</g>
<g id="clust10" class="cluster">
<title>cluster_\Twigger\UnionCloud\Traits</title>
<path fill="none" stroke="#c0c0c0" d="M1187.9913,-266C1187.9913,-266 1283.9913,-266 1283.9913,-266 1289.9913,-266 1295.9913,-272 1295.9913,-278 1295.9913,-278 1295.9913,-326 1295.9913,-326 1295.9913,-332 1289.9913,-338 1283.9913,-338 1283.9913,-338 1187.9913,-338 1187.9913,-338 1181.9913,-338 1175.9913,-332 1175.9913,-326 1175.9913,-326 1175.9913,-278 1175.9913,-278 1175.9913,-272 1181.9913,-266 1187.9913,-266"/>
<text text-anchor="middle" x="1235.9913" y="-325.2" font-family="Times,serif" font-size="11.00" fill="#c0c0c0">Traits</text>
</g>
<g id="clust11" class="cluster">
<title>cluster_\Twigger\UnionCloud\Auth</title>
<path fill="none" stroke="#c0c0c0" d="M846.4913,-132C846.4913,-132 1290.9913,-132 1290.9913,-132 1296.9913,-132 1302.9913,-138 1302.9913,-144 1302.9913,-144 1302.9913,-246 1302.9913,-246 1302.9913,-252 1296.9913,-258 1290.9913,-258 1290.9913,-258 846.4913,-258 846.4913,-258 840.4913,-258 834.4913,-252 834.4913,-246 834.4913,-246 834.4913,-144 834.4913,-144 834.4913,-138 840.4913,-132 846.4913,-132"/>
<text text-anchor="middle" x="1068.7413" y="-245.2" font-family="Times,serif" font-size="11.00" fill="#c0c0c0">Auth</text>
</g>
<!-- \\Twigger\\UnionCloud\\Exception\\Authentication\\UnionCloudResponseAuthenticationException -->
<g id="node1" class="node">
<title>\\Twigger\\UnionCloud\\Exception\\Authentication\\UnionCloudResponseAuthenticationException</title>
<polygon fill="none" stroke="#000000" points="1044.4913,-988 751.4913,-988 751.4913,-952 1044.4913,-952 1044.4913,-988"/>
<text text-anchor="middle" x="897.9913" y="-967.2" font-family="Courier,monospace" font-size="11.00" fill="#000000">UnionCloudResponseAuthenticationException</text>
</g>
<!-- \\Twigger\\UnionCloud\\Exception\\Authentication\\BaseUnionCloudAuthenticationException -->
<g id="node2" class="node">
<title>\\Twigger\\UnionCloud\\Exception\\Authentication\\BaseUnionCloudAuthenticationException</title>
<polygon fill="none" stroke="#000000" points="679.4913,-988 413.4913,-988 413.4913,-952 679.4913,-952 679.4913,-988"/>
<text text-anchor="middle" x="546.4913" y="-967.2" font-family="Courier,monospace" font-size="11.00" fill="#000000">BaseUnionCloudAuthenticationException</text>
</g>
<!-- \\Twigger\\UnionCloud\\Exception\\Authentication\\UnionCloudResponseAuthenticationException&#45;&gt;\\Twigger\\UnionCloud\\Exception\\Authentication\\BaseUnionCloudAuthenticationException -->
<g id="edge1" class="edge">
<title>\\Twigger\\UnionCloud\\Exception\\Authentication\\UnionCloudResponseAuthenticationException&#45;&gt;\\Twigger\\UnionCloud\\Exception\\Authentication\\BaseUnionCloudAuthenticationException</title>
<path fill="none" stroke="#000000" d="M751.469,-970C731.0837,-970 710.1587,-970 689.8328,-970"/>
<polygon fill="none" stroke="#000000" points="689.5874,-966.5001 679.5874,-970 689.5873,-973.5001 689.5874,-966.5001"/>
</g>
<!-- \\Twigger\\UnionCloud\\Exception\\BaseUnionCloudException -->
<g id="node11" class="node">
<title>\\Twigger\\UnionCloud\\Exception\\BaseUnionCloudException</title>
<polygon fill="none" stroke="#000000" points="341.4913,-921 169.4913,-921 169.4913,-885 341.4913,-885 341.4913,-921"/>
<text text-anchor="middle" x="255.4913" y="-900.2" font-family="Courier,monospace" font-size="11.00" fill="#000000">BaseUnionCloudException</text>
</g>
<!-- \\Twigger\\UnionCloud\\Exception\\Authentication\\BaseUnionCloudAuthenticationException&#45;&gt;\\Twigger\\UnionCloud\\Exception\\BaseUnionCloudException -->
<g id="edge2" class="edge">
<title>\\Twigger\\UnionCloud\\Exception\\Authentication\\BaseUnionCloudAuthenticationException&#45;&gt;\\Twigger\\UnionCloud\\Exception\\BaseUnionCloudException</title>
<path fill="none" stroke="#000000" d="M468.1259,-951.9571C429.7169,-943.1138 383.3137,-932.4299 343.6688,-923.302"/>
<polygon fill="none" stroke="#000000" points="344.2746,-919.85 333.7442,-921.017 342.704,-926.6715 344.2746,-919.85"/>
</g>
<!-- \\Twigger\\UnionCloud\\Exception\\Authentication\\AuthenticationExpiredException -->
<g id="node3" class="node">
<title>\\Twigger\\UnionCloud\\Exception\\Authentication\\AuthenticationExpiredException</title>
<polygon fill="none" stroke="#000000" points="1345.4913,-1015 1126.4913,-1015 1126.4913,-979 1345.4913,-979 1345.4913,-1015"/>
<text text-anchor="middle" x="1235.9913" y="-994.2" font-family="Courier,monospace" font-size="11.00" fill="#000000">AuthenticationExpiredException</text>
</g>
<!-- \\Twigger\\UnionCloud\\Exception\\Authentication\\AuthenticationExpiredException&#45;&gt;\\Twigger\\UnionCloud\\Exception\\Authentication\\UnionCloudResponseAuthenticationException -->
<g id="edge5" class="edge">
<title>\\Twigger\\UnionCloud\\Exception\\Authentication\\AuthenticationExpiredException&#45;&gt;\\Twigger\\UnionCloud\\Exception\\Authentication\\UnionCloudResponseAuthenticationException</title>
<path fill="none" stroke="#000000" d="M1126.2524,-988.2339C1103.3808,-986.4069 1078.8512,-984.4474 1054.6603,-982.515"/>
<polygon fill="none" stroke="#000000" points="1054.9329,-979.0257 1044.6859,-981.7182 1054.3754,-986.0035 1054.9329,-979.0257"/>
</g>
<!-- \\Twigger\\UnionCloud\\Exception\\Authentication\\AuthenticatorMustExtendIAuthenticator -->
<g id="node4" class="node">
<title>\\Twigger\\UnionCloud\\Exception\\Authentication\\AuthenticatorMustExtendIAuthenticator</title>
<polygon fill="none" stroke="#000000" points="1030.9913,-1096 764.9913,-1096 764.9913,-1060 1030.9913,-1060 1030.9913,-1096"/>
<text text-anchor="middle" x="897.9913" y="-1075.2" font-family="Courier,monospace" font-size="11.00" fill="#000000">AuthenticatorMustExtendIAuthenticator</text>
</g>
<!-- \\Twigger\\UnionCloud\\Exception\\Authentication\\AuthenticatorMustExtendIAuthenticator&#45;&gt;\\Twigger\\UnionCloud\\Exception\\Authentication\\BaseUnionCloudAuthenticationException -->
<g id="edge8" class="edge">
<title>\\Twigger\\UnionCloud\\Exception\\Authentication\\AuthenticatorMustExtendIAuthenticator&#45;&gt;\\Twigger\\UnionCloud\\Exception\\Authentication\\BaseUnionCloudAuthenticationException</title>
<path fill="none" stroke="#000000" d="M787.0677,-1059.9223C774.9833,-1057.2521 762.9271,-1054.2794 751.4913,-1051 696.5472,-1035.2437 635.9315,-1010.2994 594.9667,-992.2525"/>
<polygon fill="none" stroke="#000000" points="596.3237,-989.0256 585.7636,-988.1684 593.4843,-995.4239 596.3237,-989.0256"/>
</g>
<!-- \\Twigger\\UnionCloud\\Exception\\Authentication\\AuthenticatorNotFound -->
<g id="node5" class="node">
<title>\\Twigger\\UnionCloud\\Exception\\Authentication\\AuthenticatorNotFound</title>
<polygon fill="none" stroke="#000000" points="976.9913,-1042 818.9913,-1042 818.9913,-1006 976.9913,-1006 976.9913,-1042"/>
<text text-anchor="middle" x="897.9913" y="-1021.2" font-family="Courier,monospace" font-size="11.00" fill="#000000">AuthenticatorNotFound</text>
</g>
<!-- \\Twigger\\UnionCloud\\Exception\\Authentication\\AuthenticatorNotFound&#45;&gt;\\Twigger\\UnionCloud\\Exception\\Authentication\\BaseUnionCloudAuthenticationException -->
<g id="edge11" class="edge">
<title>\\Twigger\\UnionCloud\\Exception\\Authentication\\AuthenticatorNotFound&#45;&gt;\\Twigger\\UnionCloud\\Exception\\Authentication\\BaseUnionCloudAuthenticationException</title>
<path fill="none" stroke="#000000" d="M818.6696,-1011.814C775.9526,-1005.2515 722.2279,-996.9979 673.8192,-989.561"/>
<polygon fill="none" stroke="#000000" points="674.3106,-986.0955 663.8951,-988.0364 673.2476,-993.0144 674.3106,-986.0955"/>
</g>
<!-- \\Twigger\\UnionCloud\\Exception\\Authentication\\AuthenticationIncorrectParameters -->
<g id="node6" class="node">
<title>\\Twigger\\UnionCloud\\Exception\\Authentication\\AuthenticationIncorrectParameters</title>
<polygon fill="none" stroke="#000000" points="1355.4913,-961 1116.4913,-961 1116.4913,-925 1355.4913,-925 1355.4913,-961"/>
<text text-anchor="middle" x="1235.9913" y="-940.2" font-family="Courier,monospace" font-size="11.00" fill="#000000">AuthenticationIncorrectParameters</text>
</g>
<!-- \\Twigger\\UnionCloud\\Exception\\Authentication\\AuthenticationIncorrectParameters&#45;&gt;\\Twigger\\UnionCloud\\Exception\\Authentication\\UnionCloudResponseAuthenticationException -->
<g id="edge17" class="edge">
<title>\\Twigger\\UnionCloud\\Exception\\Authentication\\AuthenticationIncorrectParameters&#45;&gt;\\Twigger\\UnionCloud\\Exception\\Authentication\\UnionCloudResponseAuthenticationException</title>
<path fill="none" stroke="#000000" d="M1116.3495,-952.5572C1096.439,-954.1477 1075.5266,-955.8182 1054.8575,-957.4693"/>
<polygon fill="none" stroke="#000000" points="1054.4253,-953.9926 1044.7358,-958.2778 1054.9828,-960.9703 1054.4253,-953.9926"/>
</g>
<!-- \\Twigger\\UnionCloud\\Exception\\Authentication\\AuthenticationParameterMissing -->
<g id="node7" class="node">
<title>\\Twigger\\UnionCloud\\Exception\\Authentication\\AuthenticationParameterMissing</title>
<polygon fill="none" stroke="#000000" points="1007.4913,-934 788.4913,-934 788.4913,-898 1007.4913,-898 1007.4913,-934"/>
<text text-anchor="middle" x="897.9913" y="-913.2" font-family="Courier,monospace" font-size="11.00" fill="#000000">AuthenticationParameterMissing</text>
</g>
<!-- \\Twigger\\UnionCloud\\Exception\\Authentication\\AuthenticationParameterMissing&#45;&gt;\\Twigger\\UnionCloud\\Exception\\Authentication\\BaseUnionCloudAuthenticationException -->
<g id="edge18" class="edge">
<title>\\Twigger\\UnionCloud\\Exception\\Authentication\\AuthenticationParameterMissing&#45;&gt;\\Twigger\\UnionCloud\\Exception\\Authentication\\BaseUnionCloudAuthenticationException</title>
<path fill="none" stroke="#000000" d="M788.2204,-932.8638C751.9781,-938.4316 711.3567,-944.6722 673.9095,-950.4251"/>
<polygon fill="none" stroke="#000000" points="673.3044,-946.9769 663.9519,-951.9549 674.3674,-953.8957 673.3044,-946.9769"/>
</g>
<!-- \\Twigger\\UnionCloud\\Exception\\Response\\IncorrectResponseTypeException -->
<g id="node8" class="node">
<title>\\Twigger\\UnionCloud\\Exception\\Response\\IncorrectResponseTypeException</title>
<polygon fill="none" stroke="#000000" points="1007.4913,-854 788.4913,-854 788.4913,-818 1007.4913,-818 1007.4913,-854"/>
<text text-anchor="middle" x="897.9913" y="-833.2" font-family="Courier,monospace" font-size="11.00" fill="#000000">IncorrectResponseTypeException</text>
</g>
<!-- \\Twigger\\UnionCloud\\Exception\\Response\\BaseResponseException -->
<g id="node9" class="node">
<title>\\Twigger\\UnionCloud\\Exception\\Response\\BaseResponseException</title>
<polygon fill="none" stroke="#000000" points="625.4913,-854 467.4913,-854 467.4913,-818 625.4913,-818 625.4913,-854"/>
<text text-anchor="middle" x="546.4913" y="-833.2" font-family="Courier,monospace" font-size="11.00" fill="#000000">BaseResponseException</text>
</g>
<!-- \\Twigger\\UnionCloud\\Exception\\Response\\IncorrectResponseTypeException&#45;&gt;\\Twigger\\UnionCloud\\Exception\\Response\\BaseResponseException -->
<g id="edge12" class="edge">
<title>\\Twigger\\UnionCloud\\Exception\\Response\\IncorrectResponseTypeException&#45;&gt;\\Twigger\\UnionCloud\\Exception\\Response\\BaseResponseException</title>
<path fill="none" stroke="#000000" d="M788.2204,-836C739.1463,-836 682.0434,-836 635.6634,-836"/>
<polygon fill="none" stroke="#000000" points="635.6346,-832.5001 625.6345,-836 635.6345,-839.5001 635.6346,-832.5001"/>
</g>
<!-- \\Twigger\\UnionCloud\\Exception\\Response\\BaseResponseException&#45;&gt;\\Twigger\\UnionCloud\\Exception\\BaseUnionCloudException -->
<g id="edge14" class="edge">
<title>\\Twigger\\UnionCloud\\Exception\\Response\\BaseResponseException&#45;&gt;\\Twigger\\UnionCloud\\Exception\\BaseUnionCloudException</title>
<path fill="none" stroke="#000000" d="M468.1259,-854.0429C429.7169,-862.8862 383.3137,-873.5701 343.6688,-882.698"/>
<polygon fill="none" stroke="#000000" points="342.704,-879.3285 333.7442,-884.983 344.2746,-886.15 342.704,-879.3285"/>
</g>
<!-- \\Twigger\\UnionCloud\\Exception\\Response\\AuthRefreshRequiredException -->
<g id="node10" class="node">
<title>\\Twigger\\UnionCloud\\Exception\\Response\\AuthRefreshRequiredException</title>
<polygon fill="none" stroke="#000000" points="1000.9913,-800 794.9913,-800 794.9913,-764 1000.9913,-764 1000.9913,-800"/>
<text text-anchor="middle" x="897.9913" y="-779.2" font-family="Courier,monospace" font-size="11.00" fill="#000000">AuthRefreshRequiredException</text>
</g>
<!-- \\Twigger\\UnionCloud\\Exception\\Response\\AuthRefreshRequiredException&#45;&gt;\\Twigger\\UnionCloud\\Exception\\Response\\BaseResponseException -->
<g id="edge16" class="edge">
<title>\\Twigger\\UnionCloud\\Exception\\Response\\AuthRefreshRequiredException&#45;&gt;\\Twigger\\UnionCloud\\Exception\\Response\\BaseResponseException</title>
<path fill="none" stroke="#000000" d="M794.9048,-797.8369C744.4094,-805.5944 684.2011,-814.844 635.7061,-822.2942"/>
<polygon fill="none" stroke="#000000" points="634.8959,-818.8775 625.5434,-823.8555 635.9589,-825.7963 634.8959,-818.8775"/>
</g>
<!-- \\Exception -->
<g id="node27" class="node">
<title>\\Exception</title>
<ellipse fill="none" stroke="#000000" cx="48.7457" cy="-903" rx="48.9926" ry="18"/>
<text text-anchor="middle" x="48.7457" y="-899.3" font-family="Times,serif" font-size="14.00" fill="#c0c0c0">\Exception</text>
</g>
<!-- \\Twigger\\UnionCloud\\Exception\\BaseUnionCloudException&#45;&gt;\\Exception -->
<g id="edge13" class="edge">
<title>\\Twigger\\UnionCloud\\Exception\\BaseUnionCloudException&#45;&gt;\\Exception</title>
<path fill="none" stroke="#000000" d="M169.3097,-903C148.5536,-903 126.8462,-903 107.6622,-903"/>
<polygon fill="none" stroke="#000000" points="107.5835,-899.5001 97.5835,-903 107.5834,-906.5001 107.5835,-899.5001"/>
</g>
<!-- \\Twigger\\UnionCloud\\Resource\\EventResource -->
<g id="node12" class="node">
<title>\\Twigger\\UnionCloud\\Resource\\EventResource</title>
<polygon fill="none" stroke="#000000" points="1287.9913,-685 1183.9913,-685 1183.9913,-649 1287.9913,-649 1287.9913,-685"/>
<text text-anchor="middle" x="1235.9913" y="-664.2" font-family="Courier,monospace" font-size="11.00" fill="#000000">EventResource</text>
</g>
<!-- \\Twigger\\UnionCloud\\Resource\\BaseResource -->
<g id="node13" class="node">
<title>\\Twigger\\UnionCloud\\Resource\\BaseResource</title>
<polygon fill="none" stroke="#000000" points="946.9913,-658 848.9913,-658 848.9913,-622 946.9913,-622 946.9913,-658"/>
<text text-anchor="middle" x="897.9913" y="-637.2" font-family="Courier,monospace" font-size="11.00" fill="#000000">BaseResource</text>
</g>
<!-- \\Twigger\\UnionCloud\\Resource\\EventResource&#45;&gt;\\Twigger\\UnionCloud\\Resource\\BaseResource -->
<g id="edge3" class="edge">
<title>\\Twigger\\UnionCloud\\Resource\\EventResource&#45;&gt;\\Twigger\\UnionCloud\\Resource\\BaseResource</title>
<path fill="none" stroke="#000000" d="M1183.9196,-662.8404C1122.7879,-657.9571 1021.6196,-649.8756 957.4576,-644.7503"/>
<polygon fill="none" stroke="#000000" points="957.3462,-641.2303 947.0992,-643.9228 956.7887,-648.2081 957.3462,-641.2303"/>
</g>
<!-- \\Twigger\\UnionCloud\\Resource\\IResource -->
<g id="node14" class="node">
<title>\\Twigger\\UnionCloud\\Resource\\IResource</title>
<polygon fill="none" stroke="#000000" points="936.4913,-712 859.4913,-712 859.4913,-676 936.4913,-676 936.4913,-712"/>
<text text-anchor="middle" x="897.9913" y="-691.2" font-family="Courier,monospace" font-size="11.00" fill="#000000">IResource</text>
</g>
<!-- \\Twigger\\UnionCloud\\Resource\\EventResource&#45;&gt;\\Twigger\\UnionCloud\\Resource\\IResource -->
<g id="edge4" class="edge">
<title>\\Twigger\\UnionCloud\\Resource\\EventResource&#45;&gt;\\Twigger\\UnionCloud\\Resource\\IResource</title>
<path fill="none" stroke="#000000" stroke-dasharray="1,5" d="M1183.9196,-671.1596C1119.3673,-676.3161 1010.1726,-685.0388 947.0483,-690.0813"/>
<polygon fill="none" stroke="#000000" points="946.6394,-686.6027 936.9498,-690.8879 947.1968,-693.5804 946.6394,-686.6027"/>
</g>
<!-- \\Twigger\\UnionCloud\\Response\\BaseResponse -->
<g id="node15" class="node">
<title>\\Twigger\\UnionCloud\\Response\\BaseResponse</title>
<polygon fill="none" stroke="#000000" points="946.9913,-524 848.9913,-524 848.9913,-488 946.9913,-488 946.9913,-524"/>
<text text-anchor="middle" x="897.9913" y="-503.2" font-family="Courier,monospace" font-size="11.00" fill="#000000">BaseResponse</text>
</g>
<!-- \\Twigger\\UnionCloud\\Response\\EventResponse -->
<g id="node16" class="node">
<title>\\Twigger\\UnionCloud\\Response\\EventResponse</title>
<polygon fill="none" stroke="#000000" points="1287.9913,-551 1183.9913,-551 1183.9913,-515 1287.9913,-515 1287.9913,-551"/>
<text text-anchor="middle" x="1235.9913" y="-530.2" font-family="Courier,monospace" font-size="11.00" fill="#000000">EventResponse</text>
</g>
<!-- \\Twigger\\UnionCloud\\Response\\EventResponse&#45;&gt;\\Twigger\\UnionCloud\\Response\\BaseResponse -->
<g id="edge9" class="edge">
<title>\\Twigger\\UnionCloud\\Response\\EventResponse&#45;&gt;\\Twigger\\UnionCloud\\Response\\BaseResponse</title>
<path fill="none" stroke="#000000" d="M1183.9196,-528.8404C1122.7879,-523.9571 1021.6196,-515.8756 957.4576,-510.7503"/>
<polygon fill="none" stroke="#000000" points="957.3462,-507.2303 947.0992,-509.9228 956.7887,-514.2081 957.3462,-507.2303"/>
</g>
<!-- \\Twigger\\UnionCloud\\Response\\IResponse -->
<g id="node17" class="node">
<title>\\Twigger\\UnionCloud\\Response\\IResponse</title>
<polygon fill="none" stroke="#000000" points="936.4913,-578 859.4913,-578 859.4913,-542 936.4913,-542 936.4913,-578"/>
<text text-anchor="middle" x="897.9913" y="-557.2" font-family="Courier,monospace" font-size="11.00" fill="#000000">IResponse</text>
</g>
<!-- \\Twigger\\UnionCloud\\Response\\EventResponse&#45;&gt;\\Twigger\\UnionCloud\\Response\\IResponse -->
<g id="edge10" class="edge">
<title>\\Twigger\\UnionCloud\\Response\\EventResponse&#45;&gt;\\Twigger\\UnionCloud\\Response\\IResponse</title>
<path fill="none" stroke="#000000" stroke-dasharray="1,5" d="M1183.9196,-537.1596C1119.3673,-542.3161 1010.1726,-551.0388 947.0483,-556.0813"/>
<polygon fill="none" stroke="#000000" points="946.6394,-552.6027 936.9498,-556.8879 947.1968,-559.5804 946.6394,-552.6027"/>
</g>
<!-- \\Twigger\\UnionCloud\\Request\\EventRequest -->
<g id="node18" class="node">
<title>\\Twigger\\UnionCloud\\Request\\EventRequest</title>
<polygon fill="none" stroke="#000000" points="1284.9913,-417 1186.9913,-417 1186.9913,-381 1284.9913,-381 1284.9913,-417"/>
<text text-anchor="middle" x="1235.9913" y="-396.2" font-family="Courier,monospace" font-size="11.00" fill="#000000">EventRequest</text>
</g>
<!-- \\Twigger\\UnionCloud\\Request\\BaseRequest -->
<g id="node19" class="node">
<title>\\Twigger\\UnionCloud\\Request\\BaseRequest</title>
<polygon fill="none" stroke="#000000" points="943.4913,-390 852.4913,-390 852.4913,-354 943.4913,-354 943.4913,-390"/>
<text text-anchor="middle" x="897.9913" y="-369.2" font-family="Courier,monospace" font-size="11.00" fill="#000000">BaseRequest</text>
</g>
<!-- \\Twigger\\UnionCloud\\Request\\EventRequest&#45;&gt;\\Twigger\\UnionCloud\\Request\\BaseRequest -->
<g id="edge6" class="edge">
<title>\\Twigger\\UnionCloud\\Request\\EventRequest&#45;&gt;\\Twigger\\UnionCloud\\Request\\BaseRequest</title>
<path fill="none" stroke="#000000" d="M1186.8432,-395.074C1124.8853,-390.1247 1018.6482,-381.6383 953.7279,-376.4523"/>
<polygon fill="none" stroke="#000000" points="953.9234,-372.9569 943.6764,-375.6494 953.3659,-379.9347 953.9234,-372.9569"/>
</g>
<!-- \\Twigger\\UnionCloud\\Request\\IRequest -->
<g id="node20" class="node">
<title>\\Twigger\\UnionCloud\\Request\\IRequest</title>
<polygon fill="none" stroke="#000000" points="933.4913,-444 862.4913,-444 862.4913,-408 933.4913,-408 933.4913,-444"/>
<text text-anchor="middle" x="897.9913" y="-423.2" font-family="Courier,monospace" font-size="11.00" fill="#000000">IRequest</text>
</g>
<!-- \\Twigger\\UnionCloud\\Request\\EventRequest&#45;&gt;\\Twigger\\UnionCloud\\Request\\IRequest -->
<g id="edge7" class="edge">
<title>\\Twigger\\UnionCloud\\Request\\EventRequest&#45;&gt;\\Twigger\\UnionCloud\\Request\\IRequest</title>
<path fill="none" stroke="#000000" stroke-dasharray="1,5" d="M1186.8432,-402.926C1121.6308,-408.1353 1007.3651,-417.263 943.8518,-422.3366"/>
<polygon fill="none" stroke="#000000" points="943.4231,-418.8596 933.7335,-423.1449 943.9805,-425.8374 943.4231,-418.8596"/>
</g>
<!-- \\Twigger\\UnionCloud\\Traits\\Authenticates -->
<g id="node21" class="node">
<title>\\Twigger\\UnionCloud\\Traits\\Authenticates</title>
<polygon fill="none" stroke="#000000" points="1287.9913,-310 1183.9913,-310 1183.9913,-274 1287.9913,-274 1287.9913,-310"/>
<text text-anchor="middle" x="1235.9913" y="-289.2" font-family="Courier,monospace" font-size="11.00" fill="#000000">Authenticates</text>
</g>
<!-- \\Twigger\\UnionCloud\\Auth\\v0Authenticator -->
<g id="node22" class="node">
<title>\\Twigger\\UnionCloud\\Auth\\v0Authenticator</title>
<polygon fill="none" stroke="#000000" points="1294.9913,-230 1176.9913,-230 1176.9913,-194 1294.9913,-194 1294.9913,-230"/>
<text text-anchor="middle" x="1235.9913" y="-209.2" font-family="Courier,monospace" font-size="11.00" fill="#000000">v0Authenticator</text>
</g>
<!-- \\Twigger\\UnionCloud\\Auth\\IAuthenticator -->
<g id="node24" class="node">
<title>\\Twigger\\UnionCloud\\Auth\\IAuthenticator</title>
<polygon fill="none" stroke="#000000" points="953.4913,-230 842.4913,-230 842.4913,-194 953.4913,-194 953.4913,-230"/>
<text text-anchor="middle" x="897.9913" y="-209.2" font-family="Courier,monospace" font-size="11.00" fill="#000000">IAuthenticator</text>
</g>
<!-- \\Twigger\\UnionCloud\\Auth\\v0Authenticator&#45;&gt;\\Twigger\\UnionCloud\\Auth\\IAuthenticator -->
<g id="edge15" class="edge">
<title>\\Twigger\\UnionCloud\\Auth\\v0Authenticator&#45;&gt;\\Twigger\\UnionCloud\\Auth\\IAuthenticator</title>
<path fill="none" stroke="#000000" stroke-dasharray="1,5" d="M1176.7295,-212C1117.097,-212 1025.3493,-212 963.5656,-212"/>
<polygon fill="none" stroke="#000000" points="963.5364,-208.5001 953.5364,-212 963.5363,-215.5001 963.5364,-208.5001"/>
</g>
<!-- \\Twigger\\UnionCloud\\Auth\\Authentication -->
<g id="node23" class="node">
<title>\\Twigger\\UnionCloud\\Auth\\Authentication</title>
<polygon fill="none" stroke="#000000" points="1291.4913,-176 1180.4913,-176 1180.4913,-140 1291.4913,-140 1291.4913,-176"/>
<text text-anchor="middle" x="1235.9913" y="-155.2" font-family="Courier,monospace" font-size="11.00" fill="#000000">Authentication</text>
</g>
<!-- \\Twigger\\UnionCloud\\UnionCloud -->
<g id="node25" class="node">
<title>\\Twigger\\UnionCloud\\UnionCloud</title>
<polygon fill="none" stroke="#000000" points="1277.9913,-122 1193.9913,-122 1193.9913,-86 1277.9913,-86 1277.9913,-122"/>
<text text-anchor="middle" x="1235.9913" y="-101.2" font-family="Courier,monospace" font-size="11.00" fill="#000000">UnionCloud</text>
</g>
<!-- \\Twigger\\UnionCloud\\Configuration -->
<g id="node26" class="node">
<title>\\Twigger\\UnionCloud\\Configuration</title>
<polygon fill="none" stroke="#000000" points="1287.9913,-68 1183.9913,-68 1183.9913,-32 1287.9913,-32 1287.9913,-68"/>
<text text-anchor="middle" x="1235.9913" y="-47.2" font-family="Courier,monospace" font-size="11.00" fill="#000000">Configuration</text>
</g>
</g>
</svg>
