<?xml version="1.0" encoding="UTF-8" standalone="no"?>
<!DOCTYPE svg PUBLIC "-//W3C//DTD SVG 1.1//EN"
 "http://www.w3.org/Graphics/SVG/1.1/DTD/svg11.dtd">
<!-- Generated by graphviz version 2.40.1 (20161225.0304)
 -->
<!-- Title: G Pages: 1 -->
<svg width="1411pt" height="1698pt"
 viewBox="0.00 0.00 1411.49 1698.00" xmlns="http://www.w3.org/2000/svg" xmlns:xlink="http://www.w3.org/1999/xlink">
<g id="graph0" class="graph" transform="scale(1 1) rotate(0) translate(4 1694)">
<title>G</title>
<polygon fill="#ffffff" stroke="transparent" points="-4,4 -4,-1694 1407.4913,-1694 1407.4913,4 -4,4"/>
<g id="clust1" class="cluster">
<title>cluster_Global</title>
<path fill="none" stroke="#c0c0c0" d="M149.4913,-8C149.4913,-8 1383.4913,-8 1383.4913,-8 1389.4913,-8 1395.4913,-14 1395.4913,-20 1395.4913,-20 1395.4913,-1670 1395.4913,-1670 1395.4913,-1676 1389.4913,-1682 1383.4913,-1682 1383.4913,-1682 149.4913,-1682 149.4913,-1682 143.4913,-1682 137.4913,-1676 137.4913,-1670 137.4913,-1670 137.4913,-20 137.4913,-20 137.4913,-14 143.4913,-8 149.4913,-8"/>
<text text-anchor="middle" x="766.4913" y="-1669.2" font-family="Times,serif" font-size="11.00" fill="#c0c0c0">Global</text>
</g>
<g id="clust2" class="cluster">
<title>cluster_\Twigger</title>
<path fill="none" stroke="#c0c0c0" d="M157.4913,-16C157.4913,-16 1375.4913,-16 1375.4913,-16 1381.4913,-16 1387.4913,-22 1387.4913,-28 1387.4913,-28 1387.4913,-1642 1387.4913,-1642 1387.4913,-1648 1381.4913,-1654 1375.4913,-1654 1375.4913,-1654 157.4913,-1654 157.4913,-1654 151.4913,-1654 145.4913,-1648 145.4913,-1642 145.4913,-1642 145.4913,-28 145.4913,-28 145.4913,-22 151.4913,-16 157.4913,-16"/>
<text text-anchor="middle" x="766.4913" y="-1641.2" font-family="Times,serif" font-size="11.00" fill="#c0c0c0">Twigger</text>
</g>
<g id="clust3" class="cluster">
<title>cluster_\Twigger\UnionCloud</title>
<path fill="none" stroke="#c0c0c0" d="M165.4913,-24C165.4913,-24 1367.4913,-24 1367.4913,-24 1373.4913,-24 1379.4913,-30 1379.4913,-36 1379.4913,-36 1379.4913,-1614 1379.4913,-1614 1379.4913,-1620 1373.4913,-1626 1367.4913,-1626 1367.4913,-1626 165.4913,-1626 165.4913,-1626 159.4913,-1626 153.4913,-1620 153.4913,-1614 153.4913,-1614 153.4913,-36 153.4913,-36 153.4913,-30 159.4913,-24 165.4913,-24"/>
<text text-anchor="middle" x="766.4913" y="-1613.2" font-family="Times,serif" font-size="11.00" fill="#c0c0c0">UnionCloud</text>
</g>
<g id="clust4" class="cluster">
<title>cluster_\Twigger\UnionCloud\Exception</title>
<path fill="none" stroke="#c0c0c0" d="M173.4913,-800C173.4913,-800 1359.4913,-800 1359.4913,-800 1365.4913,-800 1371.4913,-806 1371.4913,-812 1371.4913,-812 1371.4913,-1586 1371.4913,-1586 1371.4913,-1592 1365.4913,-1598 1359.4913,-1598 1359.4913,-1598 173.4913,-1598 173.4913,-1598 167.4913,-1598 161.4913,-1592 161.4913,-1586 161.4913,-1586 161.4913,-812 161.4913,-812 161.4913,-806 167.4913,-800 173.4913,-800"/>
<text text-anchor="middle" x="766.4913" y="-1585.2" font-family="Times,serif" font-size="11.00" fill="#c0c0c0">Exception</text>
</g>
<g id="clust5" class="cluster">
<title>cluster_\Twigger\UnionCloud\Exception\Authentication</title>
<path fill="none" stroke="#c0c0c0" d="M417.4913,-1336C417.4913,-1336 1351.4913,-1336 1351.4913,-1336 1357.4913,-1336 1363.4913,-1342 1363.4913,-1348 1363.4913,-1348 1363.4913,-1558 1363.4913,-1558 1363.4913,-1564 1357.4913,-1570 1351.4913,-1570 1351.4913,-1570 417.4913,-1570 417.4913,-1570 411.4913,-1570 405.4913,-1564 405.4913,-1558 405.4913,-1558 405.4913,-1348 405.4913,-1348 405.4913,-1342 411.4913,-1336 417.4913,-1336"/>
<text text-anchor="middle" x="884.4913" y="-1557.2" font-family="Times,serif" font-size="11.00" fill="#c0c0c0">Authentication</text>
</g>
<g id="clust6" class="cluster">
<title>cluster_\Twigger\UnionCloud\Exception\Response</title>
<path fill="none" stroke="#c0c0c0" d="M471.4913,-1148C471.4913,-1148 1003.4913,-1148 1003.4913,-1148 1009.4913,-1148 1015.4913,-1154 1015.4913,-1160 1015.4913,-1160 1015.4913,-1316 1015.4913,-1316 1015.4913,-1322 1009.4913,-1328 1003.4913,-1328 1003.4913,-1328 471.4913,-1328 471.4913,-1328 465.4913,-1328 459.4913,-1322 459.4913,-1316 459.4913,-1316 459.4913,-1160 459.4913,-1160 459.4913,-1154 465.4913,-1148 471.4913,-1148"/>
<text text-anchor="middle" x="737.4913" y="-1315.2" font-family="Times,serif" font-size="11.00" fill="#c0c0c0">Response</text>
</g>
<g id="clust7" class="cluster">
<title>cluster_\Twigger\UnionCloud\Exception\Request</title>
<path fill="none" stroke="#c0c0c0" d="M474.4913,-1014C474.4913,-1014 1016.9913,-1014 1016.9913,-1014 1022.9913,-1014 1028.9913,-1020 1028.9913,-1026 1028.9913,-1026 1028.9913,-1128 1028.9913,-1128 1028.9913,-1134 1022.9913,-1140 1016.9913,-1140 1016.9913,-1140 474.4913,-1140 474.4913,-1140 468.4913,-1140 462.4913,-1134 462.4913,-1128 462.4913,-1128 462.4913,-1026 462.4913,-1026 462.4913,-1020 468.4913,-1014 474.4913,-1014"/>
<text text-anchor="middle" x="745.7413" y="-1127.2" font-family="Times,serif" font-size="11.00" fill="#c0c0c0">Request</text>
</g>
<g id="clust8" class="cluster">
<title>cluster_\Twigger\UnionCloud\Exception\Resource</title>
<path fill="none" stroke="#c0c0c0" d="M471.4913,-934C471.4913,-934 986.4913,-934 986.4913,-934 992.4913,-934 998.4913,-940 998.4913,-946 998.4913,-946 998.4913,-994 998.4913,-994 998.4913,-1000 992.4913,-1006 986.4913,-1006 986.4913,-1006 471.4913,-1006 471.4913,-1006 465.4913,-1006 459.4913,-1000 459.4913,-994 459.4913,-994 459.4913,-946 459.4913,-946 459.4913,-940 465.4913,-934 471.4913,-934"/>
<text text-anchor="middle" x="728.9913" y="-993.2" font-family="Times,serif" font-size="11.00" fill="#c0c0c0">Resource</text>
</g>
<g id="clust9" class="cluster">
<title>cluster_\Twigger\UnionCloud\Exception\Pagination</title>
<path fill="none" stroke="#c0c0c0" d="M464.4913,-854C464.4913,-854 972.9913,-854 972.9913,-854 978.9913,-854 984.9913,-860 984.9913,-866 984.9913,-866 984.9913,-914 984.9913,-914 984.9913,-920 978.9913,-926 972.9913,-926 972.9913,-926 464.4913,-926 464.4913,-926 458.4913,-926 452.4913,-920 452.4913,-914 452.4913,-914 452.4913,-866 452.4913,-866 452.4913,-860 458.4913,-854 464.4913,-854"/>
<text text-anchor="middle" x="718.7413" y="-913.2" font-family="Times,serif" font-size="11.00" fill="#c0c0c0">Pagination</text>
</g>
<g id="clust10" class="cluster">
<title>cluster_\Twigger\UnionCloud\Traits</title>
<path fill="none" stroke="#c0c0c0" d="M1187.9913,-720C1187.9913,-720 1283.9913,-720 1283.9913,-720 1289.9913,-720 1295.9913,-726 1295.9913,-732 1295.9913,-732 1295.9913,-780 1295.9913,-780 1295.9913,-786 1289.9913,-792 1283.9913,-792 1283.9913,-792 1187.9913,-792 1187.9913,-792 1181.9913,-792 1175.9913,-786 1175.9913,-780 1175.9913,-780 1175.9913,-732 1175.9913,-732 1175.9913,-726 1181.9913,-720 1187.9913,-720"/>
<text text-anchor="middle" x="1235.9913" y="-779.2" font-family="Times,serif" font-size="11.00" fill="#c0c0c0">Traits</text>
</g>
<g id="clust11" class="cluster">
<title>cluster_\Twigger\UnionCloud\Response</title>
<path fill="none" stroke="#c0c0c0" d="M852.9913,-586C852.9913,-586 1280.9913,-586 1280.9913,-586 1286.9913,-586 1292.9913,-592 1292.9913,-598 1292.9913,-598 1292.9913,-700 1292.9913,-700 1292.9913,-706 1286.9913,-712 1280.9913,-712 1280.9913,-712 852.9913,-712 852.9913,-712 846.9913,-712 840.9913,-706 840.9913,-700 840.9913,-700 840.9913,-598 840.9913,-598 840.9913,-592 846.9913,-586 852.9913,-586"/>
<text text-anchor="middle" x="1066.9913" y="-699.2" font-family="Times,serif" font-size="11.00" fill="#c0c0c0">Response</text>
</g>
<g id="clust12" class="cluster">
<title>cluster_\Twigger\UnionCloud\Auth</title>
<path fill="none" stroke="#c0c0c0" d="M846.4913,-452C846.4913,-452 1290.9913,-452 1290.9913,-452 1296.9913,-452 1302.9913,-458 1302.9913,-464 1302.9913,-464 1302.9913,-566 1302.9913,-566 1302.9913,-572 1296.9913,-578 1290.9913,-578 1290.9913,-578 846.4913,-578 846.4913,-578 840.4913,-578 834.4913,-572 834.4913,-566 834.4913,-566 834.4913,-464 834.4913,-464 834.4913,-458 840.4913,-452 846.4913,-452"/>
<text text-anchor="middle" x="1068.7413" y="-565.2" font-family="Times,serif" font-size="11.00" fill="#c0c0c0">Auth</text>
</g>
<g id="clust13" class="cluster">
<title>cluster_\Twigger\UnionCloud\Request</title>
<path fill="none" stroke="#c0c0c0" d="M856.4913,-318C856.4913,-318 1277.4913,-318 1277.4913,-318 1283.4913,-318 1289.4913,-324 1289.4913,-330 1289.4913,-330 1289.4913,-432 1289.4913,-432 1289.4913,-438 1283.4913,-444 1277.4913,-444 1277.4913,-444 856.4913,-444 856.4913,-444 850.4913,-444 844.4913,-438 844.4913,-432 844.4913,-432 844.4913,-330 844.4913,-330 844.4913,-324 850.4913,-318 856.4913,-318"/>
<text text-anchor="middle" x="1066.9913" y="-431.2" font-family="Times,serif" font-size="11.00" fill="#c0c0c0">Request</text>
</g>
<g id="clust14" class="cluster">
<title>cluster_\Twigger\UnionCloud\Resource</title>
<path fill="none" stroke="#c0c0c0" d="M852.9913,-184C852.9913,-184 1258.9913,-184 1258.9913,-184 1264.9913,-184 1270.9913,-190 1270.9913,-196 1270.9913,-196 1270.9913,-298 1270.9913,-298 1270.9913,-304 1264.9913,-310 1258.9913,-310 1258.9913,-310 852.9913,-310 852.9913,-310 846.9913,-310 840.9913,-304 840.9913,-298 840.9913,-298 840.9913,-196 840.9913,-196 840.9913,-190 846.9913,-184 852.9913,-184"/>
<text text-anchor="middle" x="1055.9913" y="-297.2" font-family="Times,serif" font-size="11.00" fill="#c0c0c0">Resource</text>
</g>
<!-- \\Twigger\\UnionCloud\\Exception\\Authentication\\AuthenticationExpiredException -->
<g id="node1" class="node">
<title>\\Twigger\\UnionCloud\\Exception\\Authentication\\AuthenticationExpiredException</title>
<polygon fill="none" stroke="#000000" points="1345.4913,-1542 1126.4913,-1542 1126.4913,-1506 1345.4913,-1506 1345.4913,-1542"/>
<text text-anchor="middle" x="1235.9913" y="-1521.2" font-family="Courier,monospace" font-size="11.00" fill="#000000">AuthenticationExpiredException</text>
</g>
<!-- \\Twigger\\UnionCloud\\Exception\\Authentication\\UnionCloudResponseAuthenticationException -->
<g id="node3" class="node">
<title>\\Twigger\\UnionCloud\\Exception\\Authentication\\UnionCloudResponseAuthenticationException</title>
<polygon fill="none" stroke="#000000" points="1044.4913,-1542 751.4913,-1542 751.4913,-1506 1044.4913,-1506 1044.4913,-1542"/>
<text text-anchor="middle" x="897.9913" y="-1521.2" font-family="Courier,monospace" font-size="11.00" fill="#000000">UnionCloudResponseAuthenticationException</text>
</g>
<!-- \\Twigger\\UnionCloud\\Exception\\Authentication\\AuthenticationExpiredException&#45;&gt;\\Twigger\\UnionCloud\\Exception\\Authentication\\UnionCloudResponseAuthenticationException -->
<g id="edge1" class="edge">
<title>\\Twigger\\UnionCloud\\Exception\\Authentication\\AuthenticationExpiredException&#45;&gt;\\Twigger\\UnionCloud\\Exception\\Authentication\\UnionCloudResponseAuthenticationException</title>
<path fill="none" stroke="#000000" d="M1126.2524,-1524C1103.4825,-1524 1079.0692,-1524 1054.9829,-1524"/>
<polygon fill="none" stroke="#000000" points="1054.686,-1520.5001 1044.6859,-1524 1054.6859,-1527.5001 1054.686,-1520.5001"/>
</g>
<!-- \\Twigger\\UnionCloud\\Exception\\Authentication\\AuthenticationIncorrectParameters -->
<g id="node2" class="node">
<title>\\Twigger\\UnionCloud\\Exception\\Authentication\\AuthenticationIncorrectParameters</title>
<polygon fill="none" stroke="#000000" points="1355.4913,-1488 1116.4913,-1488 1116.4913,-1452 1355.4913,-1452 1355.4913,-1488"/>
<text text-anchor="middle" x="1235.9913" y="-1467.2" font-family="Courier,monospace" font-size="11.00" fill="#000000">AuthenticationIncorrectParameters</text>
</g>
<!-- \\Twigger\\UnionCloud\\Exception\\Authentication\\AuthenticationIncorrectParameters&#45;&gt;\\Twigger\\UnionCloud\\Exception\\Authentication\\UnionCloudResponseAuthenticationException -->
<g id="edge2" class="edge">
<title>\\Twigger\\UnionCloud\\Exception\\Authentication\\AuthenticationIncorrectParameters&#45;&gt;\\Twigger\\UnionCloud\\Exception\\Authentication\\UnionCloudResponseAuthenticationException</title>
<path fill="none" stroke="#000000" d="M1122.9723,-1488.0563C1090.2753,-1493.2801 1054.4265,-1499.0074 1021.1442,-1504.3247"/>
<polygon fill="none" stroke="#000000" points="1020.2264,-1500.9268 1010.9039,-1505.9607 1021.3308,-1507.8392 1020.2264,-1500.9268"/>
</g>
<!-- \\Twigger\\UnionCloud\\Exception\\Authentication\\BaseUnionCloudAuthenticationException -->
<g id="node6" class="node">
<title>\\Twigger\\UnionCloud\\Exception\\Authentication\\BaseUnionCloudAuthenticationException</title>
<polygon fill="none" stroke="#000000" points="679.4913,-1434 413.4913,-1434 413.4913,-1398 679.4913,-1398 679.4913,-1434"/>
<text text-anchor="middle" x="546.4913" y="-1413.2" font-family="Courier,monospace" font-size="11.00" fill="#000000">BaseUnionCloudAuthenticationException</text>
</g>
<!-- \\Twigger\\UnionCloud\\Exception\\Authentication\\UnionCloudResponseAuthenticationException&#45;&gt;\\Twigger\\UnionCloud\\Exception\\Authentication\\BaseUnionCloudAuthenticationException -->
<g id="edge3" class="edge">
<title>\\Twigger\\UnionCloud\\Exception\\Authentication\\UnionCloudResponseAuthenticationException&#45;&gt;\\Twigger\\UnionCloud\\Exception\\Authentication\\BaseUnionCloudAuthenticationException</title>
<path fill="none" stroke="#000000" d="M787.0677,-1505.9223C774.9833,-1503.2521 762.9271,-1500.2794 751.4913,-1497 696.5472,-1481.2437 635.9315,-1456.2994 594.9667,-1438.2525"/>
<polygon fill="none" stroke="#000000" points="596.3237,-1435.0256 585.7636,-1434.1684 593.4843,-1441.4239 596.3237,-1435.0256"/>
</g>
<!-- \\Twigger\\UnionCloud\\Exception\\Authentication\\AuthenticatorMustExtendIAuthenticator -->
<g id="node4" class="node">
<title>\\Twigger\\UnionCloud\\Exception\\Authentication\\AuthenticatorMustExtendIAuthenticator</title>
<polygon fill="none" stroke="#000000" points="1030.9913,-1488 764.9913,-1488 764.9913,-1452 1030.9913,-1452 1030.9913,-1488"/>
<text text-anchor="middle" x="897.9913" y="-1467.2" font-family="Courier,monospace" font-size="11.00" fill="#000000">AuthenticatorMustExtendIAuthenticator</text>
</g>
<!-- \\Twigger\\UnionCloud\\Exception\\Authentication\\AuthenticatorMustExtendIAuthenticator&#45;&gt;\\Twigger\\UnionCloud\\Exception\\Authentication\\BaseUnionCloudAuthenticationException -->
<g id="edge4" class="edge">
<title>\\Twigger\\UnionCloud\\Exception\\Authentication\\AuthenticatorMustExtendIAuthenticator&#45;&gt;\\Twigger\\UnionCloud\\Exception\\Authentication\\BaseUnionCloudAuthenticationException</title>
<path fill="none" stroke="#000000" d="M780.4582,-1451.9437C746.3087,-1446.6974 708.8532,-1440.9432 674.1156,-1435.6066"/>
<polygon fill="none" stroke="#000000" points="674.3292,-1432.0984 663.9137,-1434.0393 673.2662,-1439.0172 674.3292,-1432.0984"/>
</g>
<!-- \\Twigger\\UnionCloud\\Exception\\Authentication\\AuthenticationParameterMissing -->
<g id="node5" class="node">
<title>\\Twigger\\UnionCloud\\Exception\\Authentication\\AuthenticationParameterMissing</title>
<polygon fill="none" stroke="#000000" points="1007.4913,-1434 788.4913,-1434 788.4913,-1398 1007.4913,-1398 1007.4913,-1434"/>
<text text-anchor="middle" x="897.9913" y="-1413.2" font-family="Courier,monospace" font-size="11.00" fill="#000000">AuthenticationParameterMissing</text>
</g>
<!-- \\Twigger\\UnionCloud\\Exception\\Authentication\\AuthenticationParameterMissing&#45;&gt;\\Twigger\\UnionCloud\\Exception\\Authentication\\BaseUnionCloudAuthenticationException -->
<g id="edge5" class="edge">
<title>\\Twigger\\UnionCloud\\Exception\\Authentication\\AuthenticationParameterMissing&#45;&gt;\\Twigger\\UnionCloud\\Exception\\Authentication\\BaseUnionCloudAuthenticationException</title>
<path fill="none" stroke="#000000" d="M788.2204,-1416C757.0045,-1416 722.5399,-1416 689.653,-1416"/>
<polygon fill="none" stroke="#000000" points="689.5028,-1412.5001 679.5027,-1416 689.5027,-1419.5001 689.5028,-1412.5001"/>
</g>
<!-- \\Twigger\\UnionCloud\\Exception\\BaseUnionCloudException -->
<g id="node20" class="node">
<title>\\Twigger\\UnionCloud\\Exception\\BaseUnionCloudException</title>
<polygon fill="none" stroke="#000000" points="341.4913,-1018 169.4913,-1018 169.4913,-982 341.4913,-982 341.4913,-1018"/>
<text text-anchor="middle" x="255.4913" y="-997.2" font-family="Courier,monospace" font-size="11.00" fill="#000000">BaseUnionCloudException</text>
</g>
<!-- \\Twigger\\UnionCloud\\Exception\\Authentication\\BaseUnionCloudAuthenticationException&#45;&gt;\\Twigger\\UnionCloud\\Exception\\BaseUnionCloudException -->
<g id="edge6" class="edge">
<title>\\Twigger\\UnionCloud\\Exception\\Authentication\\BaseUnionCloudAuthenticationException&#45;&gt;\\Twigger\\UnionCloud\\Exception\\BaseUnionCloudException</title>
<path fill="none" stroke="#000000" d="M501.588,-1397.9127C471.1741,-1383.7676 431.8723,-1361.5419 405.4913,-1332 321.6607,-1238.1246 277.524,-1089.5957 262.023,-1028.0962"/>
<polygon fill="none" stroke="#000000" points="265.4065,-1027.1979 259.6182,-1018.324 258.6093,-1028.8707 265.4065,-1027.1979"/>
</g>
<!-- \\Twigger\\UnionCloud\\Exception\\Authentication\\AuthenticatorNotFound -->
<g id="node7" class="node">
<title>\\Twigger\\UnionCloud\\Exception\\Authentication\\AuthenticatorNotFound</title>
<polygon fill="none" stroke="#000000" points="976.9913,-1380 818.9913,-1380 818.9913,-1344 976.9913,-1344 976.9913,-1380"/>
<text text-anchor="middle" x="897.9913" y="-1359.2" font-family="Courier,monospace" font-size="11.00" fill="#000000">AuthenticatorNotFound</text>
</g>
<!-- \\Twigger\\UnionCloud\\Exception\\Authentication\\AuthenticatorNotFound&#45;&gt;\\Twigger\\UnionCloud\\Exception\\Authentication\\BaseUnionCloudAuthenticationException -->
<g id="edge7" class="edge">
<title>\\Twigger\\UnionCloud\\Exception\\Authentication\\AuthenticatorNotFound&#45;&gt;\\Twigger\\UnionCloud\\Exception\\Authentication\\BaseUnionCloudAuthenticationException</title>
<path fill="none" stroke="#000000" d="M818.6696,-1374.186C775.9526,-1380.7485 722.2279,-1389.0021 673.8192,-1396.439"/>
<polygon fill="none" stroke="#000000" points="673.2476,-1392.9856 663.8951,-1397.9636 674.3106,-1399.9045 673.2476,-1392.9856"/>
</g>
<!-- \\Twigger\\UnionCloud\\Exception\\Response\\ResponseMustInheritIResponse -->
<g id="node8" class="node">
<title>\\Twigger\\UnionCloud\\Exception\\Response\\ResponseMustInheritIResponse</title>
<polygon fill="none" stroke="#000000" points="1000.9913,-1300 794.9913,-1300 794.9913,-1264 1000.9913,-1264 1000.9913,-1300"/>
<text text-anchor="middle" x="897.9913" y="-1279.2" font-family="Courier,monospace" font-size="11.00" fill="#000000">ResponseMustInheritIResponse</text>
</g>
<!-- \\Twigger\\UnionCloud\\Exception\\Response\\BaseResponseException -->
<g id="node11" class="node">
<title>\\Twigger\\UnionCloud\\Exception\\Response\\BaseResponseException</title>
<polygon fill="none" stroke="#000000" points="625.4913,-1219 467.4913,-1219 467.4913,-1183 625.4913,-1183 625.4913,-1219"/>
<text text-anchor="middle" x="546.4913" y="-1198.2" font-family="Courier,monospace" font-size="11.00" fill="#000000">BaseResponseException</text>
</g>
<!-- \\Twigger\\UnionCloud\\Exception\\Response\\ResponseMustInheritIResponse&#45;&gt;\\Twigger\\UnionCloud\\Exception\\Response\\BaseResponseException -->
<g id="edge9" class="edge">
<title>\\Twigger\\UnionCloud\\Exception\\Response\\ResponseMustInheritIResponse&#45;&gt;\\Twigger\\UnionCloud\\Exception\\Response\\BaseResponseException</title>
<path fill="none" stroke="#000000" d="M794.9404,-1264.0188C780.3191,-1261.1736 765.4993,-1258.1311 751.4913,-1255 707.4525,-1245.1563 658.5737,-1232.3548 619.5929,-1221.6869"/>
<polygon fill="none" stroke="#000000" points="620.4748,-1218.2995 609.9048,-1219.0237 618.6194,-1225.0492 620.4748,-1218.2995"/>
</g>
<!-- \\Twigger\\UnionCloud\\Exception\\Response\\IncorrectResponseTypeException -->
<g id="node9" class="node">
<title>\\Twigger\\UnionCloud\\Exception\\Response\\IncorrectResponseTypeException</title>
<polygon fill="none" stroke="#000000" points="1007.4913,-1246 788.4913,-1246 788.4913,-1210 1007.4913,-1210 1007.4913,-1246"/>
<text text-anchor="middle" x="897.9913" y="-1225.2" font-family="Courier,monospace" font-size="11.00" fill="#000000">IncorrectResponseTypeException</text>
</g>
<!-- \\Twigger\\UnionCloud\\Exception\\Response\\IncorrectResponseTypeException&#45;&gt;\\Twigger\\UnionCloud\\Exception\\Response\\BaseResponseException -->
<g id="edge10" class="edge">
<title>\\Twigger\\UnionCloud\\Exception\\Response\\IncorrectResponseTypeException&#45;&gt;\\Twigger\\UnionCloud\\Exception\\Response\\BaseResponseException</title>
<path fill="none" stroke="#000000" d="M788.2204,-1219.5681C739.1463,-1215.7985 682.0434,-1211.4122 635.6634,-1207.8496"/>
<polygon fill="none" stroke="#000000" points="635.8732,-1204.3555 625.6345,-1207.0793 635.3371,-1211.335 635.8732,-1204.3555"/>
</g>
<!-- \\Twigger\\UnionCloud\\Exception\\Response\\AuthRefreshRequiredException -->
<g id="node10" class="node">
<title>\\Twigger\\UnionCloud\\Exception\\Response\\AuthRefreshRequiredException</title>
<polygon fill="none" stroke="#000000" points="1000.9913,-1192 794.9913,-1192 794.9913,-1156 1000.9913,-1156 1000.9913,-1192"/>
<text text-anchor="middle" x="897.9913" y="-1171.2" font-family="Courier,monospace" font-size="11.00" fill="#000000">AuthRefreshRequiredException</text>
</g>
<!-- \\Twigger\\UnionCloud\\Exception\\Response\\AuthRefreshRequiredException&#45;&gt;\\Twigger\\UnionCloud\\Exception\\Response\\BaseResponseException -->
<g id="edge11" class="edge">
<title>\\Twigger\\UnionCloud\\Exception\\Response\\AuthRefreshRequiredException&#45;&gt;\\Twigger\\UnionCloud\\Exception\\Response\\BaseResponseException</title>
<path fill="none" stroke="#000000" d="M794.9048,-1181.9185C744.4094,-1185.7972 684.2011,-1190.422 635.7061,-1194.1471"/>
<polygon fill="none" stroke="#000000" points="635.2459,-1190.672 625.5434,-1194.9277 635.7821,-1197.6515 635.2459,-1190.672"/>
</g>
<!-- \\Twigger\\UnionCloud\\Exception\\Response\\BaseResponseException&#45;&gt;\\Twigger\\UnionCloud\\Exception\\BaseUnionCloudException -->
<g id="edge12" class="edge">
<title>\\Twigger\\UnionCloud\\Exception\\Response\\BaseResponseException&#45;&gt;\\Twigger\\UnionCloud\\Exception\\BaseUnionCloudException</title>
<path fill="none" stroke="#000000" d="M487.7932,-1182.9428C461.4824,-1173.4515 430.7581,-1160.359 405.4913,-1144 353.7521,-1110.5014 304.3033,-1057.6307 277.1053,-1026.1302"/>
<polygon fill="none" stroke="#000000" points="279.5147,-1023.5617 270.3612,-1018.2265 274.1897,-1028.1054 279.5147,-1023.5617"/>
</g>
<!-- \\Twigger\\UnionCloud\\Exception\\Request\\BaseRequestException -->
<g id="node12" class="node">
<title>\\Twigger\\UnionCloud\\Exception\\Request\\BaseRequestException</title>
<polygon fill="none" stroke="#000000" points="622.4913,-1058 470.4913,-1058 470.4913,-1022 622.4913,-1022 622.4913,-1058"/>
<text text-anchor="middle" x="546.4913" y="-1037.2" font-family="Courier,monospace" font-size="11.00" fill="#000000">BaseRequestException</text>
</g>
<!-- \\Twigger\\UnionCloud\\Exception\\Request\\BaseRequestException&#45;&gt;\\Twigger\\UnionCloud\\Exception\\BaseUnionCloudException -->
<g id="edge13" class="edge">
<title>\\Twigger\\UnionCloud\\Exception\\Request\\BaseRequestException&#45;&gt;\\Twigger\\UnionCloud\\Exception\\BaseUnionCloudException</title>
<path fill="none" stroke="#000000" d="M470.4146,-1029.5427C434.1643,-1024.5599 390.4045,-1018.5448 351.8577,-1013.2462"/>
<polygon fill="none" stroke="#000000" points="352.0413,-1009.7386 341.6578,-1011.8442 351.088,-1016.6734 352.0413,-1009.7386"/>
</g>
<!-- \\Twigger\\UnionCloud\\Exception\\Request\\IncorrectRequestParameterException -->
<g id="node13" class="node">
<title>\\Twigger\\UnionCloud\\Exception\\Request\\IncorrectRequestParameterException</title>
<polygon fill="none" stroke="#000000" points="1020.9913,-1112 774.9913,-1112 774.9913,-1076 1020.9913,-1076 1020.9913,-1112"/>
<text text-anchor="middle" x="897.9913" y="-1091.2" font-family="Courier,monospace" font-size="11.00" fill="#000000">IncorrectRequestParameterException</text>
</g>
<!-- \\Twigger\\UnionCloud\\Exception\\Request\\IncorrectRequestParameterException&#45;&gt;\\Twigger\\UnionCloud\\Exception\\Request\\BaseRequestException -->
<g id="edge14" class="edge">
<title>\\Twigger\\UnionCloud\\Exception\\Request\\IncorrectRequestParameterException&#45;&gt;\\Twigger\\UnionCloud\\Exception\\Request\\BaseRequestException</title>
<path fill="none" stroke="#000000" d="M780.4582,-1075.9437C732.0311,-1068.504 676.9558,-1060.0429 632.4107,-1053.1996"/>
<polygon fill="none" stroke="#000000" points="632.9074,-1049.7349 622.4919,-1051.6758 631.8444,-1056.6537 632.9074,-1049.7349"/>
</g>
<!-- \\Twigger\\UnionCloud\\Exception\\Request\\RequestHistoryNotFound -->
<g id="node14" class="node">
<title>\\Twigger\\UnionCloud\\Exception\\Request\\RequestHistoryNotFound</title>
<polygon fill="none" stroke="#000000" points="980.4913,-1058 815.4913,-1058 815.4913,-1022 980.4913,-1022 980.4913,-1058"/>
<text text-anchor="middle" x="897.9913" y="-1037.2" font-family="Courier,monospace" font-size="11.00" fill="#000000">RequestHistoryNotFound</text>
</g>
<!-- \\Twigger\\UnionCloud\\Exception\\Request\\RequestHistoryNotFound&#45;&gt;\\Twigger\\UnionCloud\\Exception\\Request\\BaseRequestException -->
<g id="edge15" class="edge">
<title>\\Twigger\\UnionCloud\\Exception\\Request\\RequestHistoryNotFound&#45;&gt;\\Twigger\\UnionCloud\\Exception\\Request\\BaseRequestException</title>
<path fill="none" stroke="#000000" d="M815.1359,-1040C760.2977,-1040 688.5266,-1040 632.9645,-1040"/>
<polygon fill="none" stroke="#000000" points="632.7862,-1036.5001 622.7861,-1040 632.7861,-1043.5001 632.7862,-1036.5001"/>
</g>
<!-- \\Twigger\\UnionCloud\\Exception\\Resource\\ResourceNotFoundException -->
<g id="node15" class="node">
<title>\\Twigger\\UnionCloud\\Exception\\Resource\\ResourceNotFoundException</title>
<polygon fill="none" stroke="#000000" points="990.4913,-978 805.4913,-978 805.4913,-942 990.4913,-942 990.4913,-978"/>
<text text-anchor="middle" x="897.9913" y="-957.2" font-family="Courier,monospace" font-size="11.00" fill="#000000">ResourceNotFoundException</text>
</g>
<!-- \\Twigger\\UnionCloud\\Exception\\Resource\\BaseResourceException -->
<g id="node16" class="node">
<title>\\Twigger\\UnionCloud\\Exception\\Resource\\BaseResourceException</title>
<polygon fill="none" stroke="#000000" points="625.4913,-978 467.4913,-978 467.4913,-942 625.4913,-942 625.4913,-978"/>
<text text-anchor="middle" x="546.4913" y="-957.2" font-family="Courier,monospace" font-size="11.00" fill="#000000">BaseResourceException</text>
</g>
<!-- \\Twigger\\UnionCloud\\Exception\\Resource\\ResourceNotFoundException&#45;&gt;\\Twigger\\UnionCloud\\Exception\\Resource\\BaseResourceException -->
<g id="edge17" class="edge">
<title>\\Twigger\\UnionCloud\\Exception\\Resource\\ResourceNotFoundException&#45;&gt;\\Twigger\\UnionCloud\\Exception\\Resource\\BaseResourceException</title>
<path fill="none" stroke="#000000" d="M805.1791,-960C752.7408,-960 687.5212,-960 635.6878,-960"/>
<polygon fill="none" stroke="#000000" points="635.5074,-956.5001 625.5074,-960 635.5074,-963.5001 635.5074,-956.5001"/>
</g>
<!-- \\Twigger\\UnionCloud\\Exception\\Resource\\BaseResourceException&#45;&gt;\\Twigger\\UnionCloud\\Exception\\BaseUnionCloudException -->
<g id="edge18" class="edge">
<title>\\Twigger\\UnionCloud\\Exception\\Resource\\BaseResourceException&#45;&gt;\\Twigger\\UnionCloud\\Exception\\BaseUnionCloudException</title>
<path fill="none" stroke="#000000" d="M467.3587,-970.8773C431.5928,-975.7936 389.0177,-981.6459 351.4473,-986.8102"/>
<polygon fill="none" stroke="#000000" points="350.9337,-983.3478 341.5035,-988.177 351.887,-990.2826 350.9337,-983.3478"/>
</g>
<!-- \\Twigger\\UnionCloud\\Exception\\Pagination\\BasePaginationException -->
<g id="node17" class="node">
<title>\\Twigger\\UnionCloud\\Exception\\Pagination\\BasePaginationException</title>
<polygon fill="none" stroke="#000000" points="632.4913,-898 460.4913,-898 460.4913,-862 632.4913,-862 632.4913,-898"/>
<text text-anchor="middle" x="546.4913" y="-877.2" font-family="Courier,monospace" font-size="11.00" fill="#000000">BasePaginationException</text>
</g>
<!-- \\Twigger\\UnionCloud\\Exception\\Pagination\\BasePaginationException&#45;&gt;\\Twigger\\UnionCloud\\Exception\\BaseUnionCloudException -->
<g id="edge19" class="edge">
<title>\\Twigger\\UnionCloud\\Exception\\Pagination\\BasePaginationException&#45;&gt;\\Twigger\\UnionCloud\\Exception\\BaseUnionCloudException</title>
<path fill="none" stroke="#000000" d="M491.7975,-898.0288C465.4809,-907.0497 433.6125,-918.4833 405.4913,-930 369.8559,-944.594 330.429,-963.0887 300.943,-977.4021"/>
<polygon fill="none" stroke="#000000" points="299.1903,-974.3628 291.7364,-981.8921 302.2587,-980.6545 299.1903,-974.3628"/>
</g>
<!-- \\Twigger\\UnionCloud\\Exception\\Pagination\\PageNotFoundException -->
<g id="node18" class="node">
<title>\\Twigger\\UnionCloud\\Exception\\Pagination\\PageNotFoundException</title>
<polygon fill="none" stroke="#000000" points="976.9913,-898 818.9913,-898 818.9913,-862 976.9913,-862 976.9913,-898"/>
<text text-anchor="middle" x="897.9913" y="-877.2" font-family="Courier,monospace" font-size="11.00" fill="#000000">PageNotFoundException</text>
</g>
<!-- \\Twigger\\UnionCloud\\Exception\\Pagination\\PageNotFoundException&#45;&gt;\\Twigger\\UnionCloud\\Exception\\Pagination\\BasePaginationException -->
<g id="edge20" class="edge">
<title>\\Twigger\\UnionCloud\\Exception\\Pagination\\PageNotFoundException&#45;&gt;\\Twigger\\UnionCloud\\Exception\\Pagination\\BasePaginationException</title>
<path fill="none" stroke="#000000" d="M818.6696,-880C766.5354,-880 698.005,-880 642.7531,-880"/>
<polygon fill="none" stroke="#000000" points="642.5979,-876.5001 632.5979,-880 642.5978,-883.5001 642.5979,-876.5001"/>
</g>
<!-- \\Twigger\\UnionCloud\\Exception\\InsufficientPermissionException -->
<g id="node19" class="node">
<title>\\Twigger\\UnionCloud\\Exception\\InsufficientPermissionException</title>
<polygon fill="none" stroke="#000000" points="659.4913,-844 433.4913,-844 433.4913,-808 659.4913,-808 659.4913,-844"/>
<text text-anchor="middle" x="546.4913" y="-823.2" font-family="Courier,monospace" font-size="11.00" fill="#000000">InsufficientPermissionException</text>
</g>
<!-- \\Twigger\\UnionCloud\\Exception\\InsufficientPermissionException&#45;&gt;\\Twigger\\UnionCloud\\Exception\\BaseUnionCloudException -->
<g id="edge8" class="edge">
<title>\\Twigger\\UnionCloud\\Exception\\InsufficientPermissionException&#45;&gt;\\Twigger\\UnionCloud\\Exception\\BaseUnionCloudException</title>
<path fill="none" stroke="#000000" d="M433.2221,-838.8C423.5863,-841.812 414.2049,-845.4969 405.4913,-850 348.0336,-879.6942 298.8181,-939.238 273.5761,-973.7034"/>
<polygon fill="none" stroke="#000000" points="270.6838,-971.7305 267.6848,-981.892 276.366,-975.8186 270.6838,-971.7305"/>
</g>
<!-- \\Exception -->
<g id="node37" class="node">
<title>\\Exception</title>
<ellipse fill="none" stroke="#000000" cx="48.7457" cy="-1000" rx="48.9926" ry="18"/>
<text text-anchor="middle" x="48.7457" y="-996.3" font-family="Times,serif" font-size="14.00" fill="#c0c0c0">\Exception</text>
</g>
<!-- \\Twigger\\UnionCloud\\Exception\\BaseUnionCloudException&#45;&gt;\\Exception -->
<g id="edge16" class="edge">
<title>\\Twigger\\UnionCloud\\Exception\\BaseUnionCloudException&#45;&gt;\\Exception</title>
<path fill="none" stroke="#000000" d="M169.3097,-1000C148.5536,-1000 126.8462,-1000 107.6622,-1000"/>
<polygon fill="none" stroke="#000000" points="107.5835,-996.5001 97.5835,-1000 107.5834,-1003.5001 107.5835,-996.5001"/>
</g>
<!-- \\Twigger\\UnionCloud\\Traits\\Authenticates -->
<g id="node21" class="node">
<title>\\Twigger\\UnionCloud\\Traits\\Authenticates</title>
<polygon fill="none" stroke="#000000" points="1287.9913,-764 1183.9913,-764 1183.9913,-728 1287.9913,-728 1287.9913,-764"/>
<text text-anchor="middle" x="1235.9913" y="-743.2" font-family="Courier,monospace" font-size="11.00" fill="#000000">Authenticates</text>
</g>
<!-- \\Twigger\\UnionCloud\\Response\\UserResponse -->
<g id="node22" class="node">
<title>\\Twigger\\UnionCloud\\Response\\UserResponse</title>
<polygon fill="none" stroke="#000000" points="1284.9913,-657 1186.9913,-657 1186.9913,-621 1284.9913,-621 1284.9913,-657"/>
<text text-anchor="middle" x="1235.9913" y="-636.2" font-family="Courier,monospace" font-size="11.00" fill="#000000">UserResponse</text>
</g>
<!-- \\Twigger\\UnionCloud\\Response\\BaseResponse -->
<g id="node23" class="node">
<title>\\Twigger\\UnionCloud\\Response\\BaseResponse</title>
<polygon fill="none" stroke="#000000" points="946.9913,-630 848.9913,-630 848.9913,-594 946.9913,-594 946.9913,-630"/>
<text text-anchor="middle" x="897.9913" y="-609.2" font-family="Courier,monospace" font-size="11.00" fill="#000000">BaseResponse</text>
</g>
<!-- \\Twigger\\UnionCloud\\Response\\UserResponse&#45;&gt;\\Twigger\\UnionCloud\\Response\\BaseResponse -->
<g id="edge21" class="edge">
<title>\\Twigger\\UnionCloud\\Response\\UserResponse&#45;&gt;\\Twigger\\UnionCloud\\Response\\BaseResponse</title>
<path fill="none" stroke="#000000" d="M1186.8432,-635.074C1126.015,-630.2149 1022.5075,-621.9466 957.3196,-616.7392"/>
<polygon fill="none" stroke="#000000" points="957.4457,-613.2383 947.1988,-615.9308 956.8883,-620.216 957.4457,-613.2383"/>
</g>
<!-- \\Twigger\\UnionCloud\\Response\\IResponse -->
<g id="node24" class="node">
<title>\\Twigger\\UnionCloud\\Response\\IResponse</title>
<polygon fill="none" stroke="#000000" points="936.4913,-684 859.4913,-684 859.4913,-648 936.4913,-648 936.4913,-684"/>
<text text-anchor="middle" x="897.9913" y="-663.2" font-family="Courier,monospace" font-size="11.00" fill="#000000">IResponse</text>
</g>
<!-- \\Twigger\\UnionCloud\\Response\\UserResponse&#45;&gt;\\Twigger\\UnionCloud\\Response\\IResponse -->
<g id="edge22" class="edge">
<title>\\Twigger\\UnionCloud\\Response\\UserResponse&#45;&gt;\\Twigger\\UnionCloud\\Response\\IResponse</title>
<path fill="none" stroke="#000000" stroke-dasharray="1,5" d="M1186.8432,-642.926C1122.6714,-648.0522 1010.9994,-656.9727 946.9307,-662.0906"/>
<polygon fill="none" stroke="#000000" points="946.3791,-658.6235 936.6896,-662.9087 946.9366,-665.6012 946.3791,-658.6235"/>
</g>
<!-- \\Twigger\\UnionCloud\\Auth\\v0Authenticator -->
<g id="node25" class="node">
<title>\\Twigger\\UnionCloud\\Auth\\v0Authenticator</title>
<polygon fill="none" stroke="#000000" points="1294.9913,-550 1176.9913,-550 1176.9913,-514 1294.9913,-514 1294.9913,-550"/>
<text text-anchor="middle" x="1235.9913" y="-529.2" font-family="Courier,monospace" font-size="11.00" fill="#000000">v0Authenticator</text>
</g>
<!-- \\Twigger\\UnionCloud\\Auth\\IAuthenticator -->
<g id="node27" class="node">
<title>\\Twigger\\UnionCloud\\Auth\\IAuthenticator</title>
<polygon fill="none" stroke="#000000" points="953.4913,-550 842.4913,-550 842.4913,-514 953.4913,-514 953.4913,-550"/>
<text text-anchor="middle" x="897.9913" y="-529.2" font-family="Courier,monospace" font-size="11.00" fill="#000000">IAuthenticator</text>
</g>
<!-- \\Twigger\\UnionCloud\\Auth\\v0Authenticator&#45;&gt;\\Twigger\\UnionCloud\\Auth\\IAuthenticator -->
<g id="edge23" class="edge">
<title>\\Twigger\\UnionCloud\\Auth\\v0Authenticator&#45;&gt;\\Twigger\\UnionCloud\\Auth\\IAuthenticator</title>
<path fill="none" stroke="#000000" stroke-dasharray="1,5" d="M1176.7295,-532C1117.097,-532 1025.3493,-532 963.5656,-532"/>
<polygon fill="none" stroke="#000000" points="963.5364,-528.5001 953.5364,-532 963.5363,-535.5001 963.5364,-528.5001"/>
</g>
<!-- \\Twigger\\UnionCloud\\Auth\\Authentication -->
<g id="node26" class="node">
<title>\\Twigger\\UnionCloud\\Auth\\Authentication</title>
<polygon fill="none" stroke="#000000" points="1291.4913,-496 1180.4913,-496 1180.4913,-460 1291.4913,-460 1291.4913,-496"/>
<text text-anchor="middle" x="1235.9913" y="-475.2" font-family="Courier,monospace" font-size="11.00" fill="#000000">Authentication</text>
</g>
<!-- \\Twigger\\UnionCloud\\Request\\BaseRequest -->
<g id="node28" class="node">
<title>\\Twigger\\UnionCloud\\Request\\BaseRequest</title>
<polygon fill="none" stroke="#000000" points="943.4913,-362 852.4913,-362 852.4913,-326 943.4913,-326 943.4913,-362"/>
<text text-anchor="middle" x="897.9913" y="-341.2" font-family="Courier,monospace" font-size="11.00" fill="#000000">BaseRequest</text>
</g>
<!-- \\Twigger\\UnionCloud\\Request\\UserRequest -->
<g id="node29" class="node">
<title>\\Twigger\\UnionCloud\\Request\\UserRequest</title>
<polygon fill="none" stroke="#000000" points="1281.4913,-389 1190.4913,-389 1190.4913,-353 1281.4913,-353 1281.4913,-389"/>
<text text-anchor="middle" x="1235.9913" y="-368.2" font-family="Courier,monospace" font-size="11.00" fill="#000000">UserRequest</text>
</g>
<!-- \\Twigger\\UnionCloud\\Request\\UserRequest&#45;&gt;\\Twigger\\UnionCloud\\Request\\BaseRequest -->
<g id="edge24" class="edge">
<title>\\Twigger\\UnionCloud\\Request\\UserRequest&#45;&gt;\\Twigger\\UnionCloud\\Request\\BaseRequest</title>
<path fill="none" stroke="#000000" d="M1190.4072,-367.3587C1129.0879,-362.4604 1020.1059,-353.7547 953.9056,-348.4665"/>
<polygon fill="none" stroke="#000000" points="953.909,-344.9557 943.662,-347.6482 953.3515,-351.9335 953.909,-344.9557"/>
</g>
<!-- \\Twigger\\UnionCloud\\Request\\IRequest -->
<g id="node30" class="node">
<title>\\Twigger\\UnionCloud\\Request\\IRequest</title>
<polygon fill="none" stroke="#000000" points="933.4913,-416 862.4913,-416 862.4913,-380 933.4913,-380 933.4913,-416"/>
<text text-anchor="middle" x="897.9913" y="-395.2" font-family="Courier,monospace" font-size="11.00" fill="#000000">IRequest</text>
</g>
<!-- \\Twigger\\UnionCloud\\Request\\UserRequest&#45;&gt;\\Twigger\\UnionCloud\\Request\\IRequest -->
<g id="edge25" class="edge">
<title>\\Twigger\\UnionCloud\\Request\\UserRequest&#45;&gt;\\Twigger\\UnionCloud\\Request\\IRequest</title>
<path fill="none" stroke="#000000" stroke-dasharray="1,5" d="M1190.4072,-374.6413C1125.8856,-379.7954 1008.593,-389.165 943.8968,-394.333"/>
<polygon fill="none" stroke="#000000" points="943.2886,-390.8703 933.5991,-395.1556 943.846,-397.8481 943.2886,-390.8703"/>
</g>
<!-- \\Twigger\\UnionCloud\\Resource\\BaseResource -->
<g id="node31" class="node">
<title>\\Twigger\\UnionCloud\\Resource\\BaseResource</title>
<polygon fill="none" stroke="#000000" points="946.9913,-228 848.9913,-228 848.9913,-192 946.9913,-192 946.9913,-228"/>
<text text-anchor="middle" x="897.9913" y="-207.2" font-family="Courier,monospace" font-size="11.00" fill="#000000">BaseResource</text>
</g>
<!-- \\Twigger\\UnionCloud\\Resource\\User -->
<g id="node32" class="node">
<title>\\Twigger\\UnionCloud\\Resource\\User</title>
<polygon fill="none" stroke="#000000" points="1262.9913,-256 1208.9913,-256 1208.9913,-220 1262.9913,-220 1262.9913,-256"/>
<text text-anchor="middle" x="1235.9913" y="-235.2" font-family="Courier,monospace" font-size="11.00" fill="#000000">User</text>
</g>
<!-- \\Twigger\\UnionCloud\\Resource\\User&#45;&gt;\\Twigger\\UnionCloud\\Resource\\BaseResource -->
<g id="edge26" class="edge">
<title>\\Twigger\\UnionCloud\\Resource\\User&#45;&gt;\\Twigger\\UnionCloud\\Resource\\BaseResource</title>
<path fill="none" stroke="#000000" d="M1208.9027,-235.756C1154.5923,-231.2569 1031.2762,-221.0413 957.3088,-214.9139"/>
<polygon fill="none" stroke="#000000" points="957.4663,-211.415 947.2115,-214.0774 956.8884,-218.3911 957.4663,-211.415"/>
</g>
<!-- \\Twigger\\UnionCloud\\Resource\\IResource -->
<g id="node33" class="node">
<title>\\Twigger\\UnionCloud\\Resource\\IResource</title>
<polygon fill="none" stroke="#000000" points="936.4913,-282 859.4913,-282 859.4913,-246 936.4913,-246 936.4913,-282"/>
<text text-anchor="middle" x="897.9913" y="-261.2" font-family="Courier,monospace" font-size="11.00" fill="#000000">IResource</text>
</g>
<!-- \\Twigger\\UnionCloud\\Resource\\User&#45;&gt;\\Twigger\\UnionCloud\\Resource\\IResource -->
<g id="edge27" class="edge">
<title>\\Twigger\\UnionCloud\\Resource\\User&#45;&gt;\\Twigger\\UnionCloud\\Resource\\IResource</title>
<path fill="none" stroke="#000000" stroke-dasharray="1,5" d="M1208.9027,-240.0837C1151.9412,-244.4654 1019.0724,-254.6861 946.8432,-260.2422"/>
<polygon fill="none" stroke="#000000" points="946.3447,-256.7701 936.6426,-261.0268 946.8817,-263.7495 946.3447,-256.7701"/>
</g>
<!-- \\Twigger\\UnionCloud\\Configuration -->
<g id="node34" class="node">
<title>\\Twigger\\UnionCloud\\Configuration</title>
<polygon fill="none" stroke="#000000" points="1287.9913,-176 1183.9913,-176 1183.9913,-140 1287.9913,-140 1287.9913,-176"/>
<text text-anchor="middle" x="1235.9913" y="-155.2" font-family="Courier,monospace" font-size="11.00" fill="#000000">Configuration</text>
</g>
<!-- \\Twigger\\UnionCloud\\ResourceCollection -->
<g id="node35" class="node">
<title>\\Twigger\\UnionCloud\\ResourceCollection</title>
<polygon fill="none" stroke="#000000" points="1304.9913,-122 1166.9913,-122 1166.9913,-86 1304.9913,-86 1304.9913,-122"/>
<text text-anchor="middle" x="1235.9913" y="-101.2" font-family="Courier,monospace" font-size="11.00" fill="#000000">ResourceCollection</text>
</g>
<!-- \\Twigger\\UnionCloud\\UnionCloud -->
<g id="node36" class="node">
<title>\\Twigger\\UnionCloud\\UnionCloud</title>
<polygon fill="none" stroke="#000000" points="1277.9913,-68 1193.9913,-68 1193.9913,-32 1277.9913,-32 1277.9913,-68"/>
<text text-anchor="middle" x="1235.9913" y="-47.2" font-family="Courier,monospace" font-size="11.00" fill="#000000">UnionCloud</text>
</g>
</g>
</svg>
